<svg width="318" height="22" viewBox="0 0 318 22" fill="none" xmlns="http://www.w3.org/2000/svg">
<path d="M0.973633 9.14883C2.05095 10.0922 3.31221 10.7959 4.59599 11.4173C5.89103 12.0238 7.23862 12.5104 8.61624 12.8923C11.3677 13.6634 14.2281 14.0115 17.0809 14.0677C22.8016 14.1912 28.4885 13.1393 33.9577 11.5222C36.7054 10.7323 39.3668 9.69537 42.0395 8.66593C44.7047 7.61028 47.4186 6.69314 50.1588 5.85087C55.6393 4.17382 61.2511 2.931 66.9305 2.12616C78.2818 0.568895 89.9559 0.887086 101.093 3.66097C103.871 4.36473 106.623 5.1808 109.299 6.20275L110.309 6.57335C110.643 6.70063 110.969 6.84662 111.303 6.98139L113.285 7.81243C114.58 8.42635 115.894 8.99535 117.152 9.68414C122.246 12.3083 126.96 15.625 131.262 19.3909C122.617 11.889 112.133 6.60704 101.033 3.90429C89.9221 1.17907 78.2856 0.905803 66.9831 2.49676C61.3224 3.27914 55.7219 4.49949 50.2527 6.15035C47.52 6.98139 44.806 7.8873 42.1446 8.92797C39.4719 9.94618 36.7918 10.9794 34.0328 11.7617C28.5373 13.3639 22.8241 14.4046 17.0809 14.2511C14.2168 14.165 11.349 13.7832 8.59747 12.9821C7.21985 12.5853 5.87601 12.0799 4.58473 11.4585C3.29719 10.8259 2.04345 10.1034 0.973633 9.14883Z" fill="#FDFBFA"/>
<path d="M98.2852 9.05926C99.0847 10.1261 100.001 11.1032 100.984 12.0016C101.964 12.9 103.022 13.7198 104.156 14.4124C106.401 15.8161 108.987 16.7408 111.637 16.7932C112.955 16.8194 114.284 16.6659 115.549 16.2916C116.814 15.921 118.041 15.4119 119.186 14.7455C119.483 14.5995 119.749 14.4011 120.031 14.2252C120.305 14.0418 120.597 13.8808 120.856 13.6787C121.382 13.2744 121.934 12.9075 122.422 12.4583L123.934 11.1556C124.19 10.9385 124.437 10.7139 124.696 10.5005L125.488 9.87907C126.007 9.45232 126.581 9.09669 127.125 8.70738C127.403 8.52021 127.696 8.3555 127.981 8.17581C128.266 7.99987 128.552 7.82393 128.856 7.67045L129.749 7.19878L130.669 6.787C130.973 6.641 131.292 6.53245 131.607 6.4164C131.922 6.30035 132.238 6.17682 132.564 6.09072C135.132 5.27465 137.932 5.13615 140.556 5.75007C143.191 6.3565 145.616 7.65922 147.707 9.32504C149.798 11.0021 151.584 13.0348 153.052 15.2584C151.536 13.0685 149.708 11.0845 147.594 9.47104C145.496 7.85013 143.086 6.59234 140.492 6.03457C137.91 5.4768 135.181 5.60033 132.666 6.4164C132.347 6.5025 132.039 6.62603 131.727 6.73833C131.419 6.85438 131.104 6.96294 130.808 7.10893L129.903 7.52071L129.028 7.98864C128.732 8.13838 128.45 8.31432 128.169 8.48652C127.887 8.66246 127.602 8.82717 127.328 9.01434C126.791 9.39991 126.228 9.75554 125.714 10.1785L124.929 10.7887C124.67 10.9984 124.426 11.2192 124.171 11.4363L122.647 12.739C122.148 13.1883 121.585 13.5626 121.052 13.9706C120.785 14.1765 120.489 14.3375 120.207 14.5247C119.918 14.7006 119.648 14.899 119.344 15.0487C118.176 15.7226 116.919 16.2354 115.624 16.6098C114.325 16.9878 112.962 17.1301 111.615 17.0852C108.904 16.9953 106.292 16.0258 104.043 14.5733C102.917 13.8471 101.874 12.9973 100.909 12.0727C99.9556 11.1443 99.0622 10.1449 98.2852 9.05926Z" fill="#FDFBFA"/>
<path d="M140.718 14.6968C141.957 14.7791 143.102 15.015 144.246 15.3556C145.38 15.7 146.48 16.1642 147.493 16.7744C148.507 17.3771 149.434 18.1332 150.2 19.0204C150.977 19.9001 151.559 20.9258 151.979 22.0002C151.472 20.967 150.815 20.005 149.993 19.2151C149.183 18.414 148.237 17.7664 147.223 17.2685C146.21 16.7669 145.132 16.4113 144.032 16.1754C142.94 15.9396 141.788 15.8086 140.718 15.8236H140.692C140.38 15.8273 140.125 15.5802 140.117 15.2695C140.11 14.9588 140.361 14.7043 140.673 14.6968C140.688 14.6968 140.703 14.6968 140.718 14.6968Z" fill="#FDFBFA"/>
<path d="M149.76 0.119898C150.74 0.883558 151.551 1.72209 152.302 2.64671C153.045 3.5676 153.69 4.57083 154.182 5.6452C154.678 6.71582 155.019 7.85756 155.147 9.02177C155.29 10.1822 155.192 11.3614 154.933 12.4807C155.098 11.339 155.102 10.1785 154.869 9.06295C154.651 7.94741 154.238 6.88053 153.679 5.89975C153.127 4.91523 152.437 4.01681 151.663 3.20074C150.894 2.39216 150.019 1.63599 149.122 1.04827L149.1 1.03329C148.841 0.861097 148.769 0.512958 148.938 0.254662C149.111 -0.00363475 149.46 -0.0747599 149.719 0.0936944C149.738 0.101181 149.749 0.112412 149.76 0.119898Z" fill="#FDFBFA"/>
<path d="M317.027 9.14883C315.957 10.1034 314.704 10.8221 313.427 11.4585C312.136 12.0799 310.792 12.5816 309.415 12.9821C306.659 13.7832 303.795 14.165 300.931 14.2511C295.184 14.4009 289.471 13.3602 283.979 11.7617C281.22 10.9794 278.54 9.94618 275.867 8.92797C273.206 7.8873 270.492 6.98139 267.759 6.15035C262.286 4.49949 256.686 3.27914 251.029 2.49676C239.723 0.905803 228.09 1.17907 216.979 3.90429C205.879 6.60704 195.395 11.8928 186.75 19.3909C191.052 15.6287 195.766 12.3083 200.86 9.68414C202.118 8.99535 203.435 8.42635 204.727 7.81243L206.709 6.98139C207.039 6.84662 207.369 6.70063 207.703 6.57335L208.713 6.20275C211.39 5.17705 214.141 4.36099 216.919 3.66097C228.056 0.887086 239.73 0.568895 251.082 2.12616C256.757 2.931 262.373 4.17756 267.853 5.85087C270.59 6.69314 273.307 7.61028 275.973 8.66593C278.641 9.69537 281.303 10.7323 284.054 11.5222C289.524 13.1393 295.21 14.1912 300.931 14.0677C303.784 14.0115 306.644 13.6634 309.396 12.8923C310.773 12.5104 312.121 12.02 313.416 11.4173C314.689 10.7997 315.95 10.0922 317.027 9.14883Z" fill="#FDFBFA"/>
<path d="M219.715 9.05939C218.938 10.1412 218.044 11.1445 217.08 12.0691C216.115 12.9937 215.071 13.8435 213.945 14.5697C211.701 16.0222 209.084 16.9917 206.374 17.0816C205.026 17.1265 203.664 16.9842 202.365 16.6061C201.07 16.2318 199.812 15.7152 198.645 15.0451C198.341 14.8954 198.071 14.697 197.782 14.521C197.5 14.3339 197.204 14.1729 196.937 13.967C196.404 13.559 195.841 13.1884 195.342 12.7354L193.818 11.4327C193.566 11.2193 193.319 10.9947 193.06 10.7851L192.275 10.1749C191.761 9.75192 191.201 9.40004 190.661 9.01072C190.387 8.82355 190.098 8.65884 189.82 8.4829C189.539 8.30696 189.257 8.13102 188.96 7.98502L188.086 7.51709L187.181 7.10532C186.885 6.95932 186.569 6.85451 186.261 6.73472C185.95 6.61867 185.646 6.49514 185.323 6.41278C182.804 5.59671 180.079 5.46944 177.497 6.03095C174.906 6.59247 172.493 7.84651 170.394 9.46742C168.281 11.0846 166.453 13.0649 164.937 15.2548C166.404 13.0312 168.191 10.9985 170.282 9.32143C172.373 7.6556 174.801 6.35289 177.433 5.74645C180.06 5.12879 182.857 5.26729 185.424 6.0871C185.751 6.1732 186.066 6.29673 186.382 6.41278C186.697 6.52883 187.016 6.63739 187.32 6.78338L188.24 7.19516L189.133 7.66683C189.433 7.81657 189.719 7.99625 190.008 8.17219C190.293 8.34813 190.586 8.51659 190.864 8.70376C191.412 9.09308 191.982 9.4487 192.5 9.87545L193.292 10.4969C193.551 10.7102 193.799 10.9348 194.054 11.152L195.567 12.4547C196.059 12.9039 196.611 13.2707 197.136 13.675C197.399 13.8772 197.688 14.0381 197.962 14.2216C198.243 14.3938 198.51 14.5922 198.806 14.7419C199.951 15.4082 201.179 15.9173 202.444 16.2879C203.713 16.6585 205.038 16.8158 206.355 16.7896C209.005 16.7372 211.588 15.8163 213.836 14.4087C214.97 13.7162 216.025 12.8964 217.008 11.998C217.999 11.1033 218.915 10.1263 219.715 9.05939Z" fill="#FDFBFA"/>
<path d="M177.283 15.8197C176.213 15.801 175.06 15.9358 173.968 16.1716C172.868 16.4112 171.787 16.7631 170.777 17.2647C169.764 17.7626 168.818 18.4102 168.007 19.2113C167.185 20.0011 166.532 20.9632 166.021 21.9964C166.442 20.9258 167.024 19.8963 167.801 19.0166C168.563 18.1294 169.49 17.3732 170.507 16.7706C171.521 16.1604 172.621 15.6962 173.754 15.3518C174.899 15.0111 176.044 14.7753 177.283 14.693C177.594 14.6742 177.861 14.9063 177.883 15.217C177.902 15.5277 177.669 15.7935 177.358 15.816C177.343 15.816 177.328 15.816 177.313 15.816L177.283 15.8197Z" fill="#FDFBFA"/>
<path d="M168.874 1.04804C167.981 1.63576 167.103 2.39568 166.333 3.20051C165.56 4.01658 164.869 4.915 164.317 5.89952C163.762 6.8803 163.345 7.94718 163.127 9.06272C162.895 10.1783 162.898 11.3387 163.064 12.4805C162.805 11.3574 162.703 10.182 162.85 9.02154C162.977 7.85734 163.319 6.71559 163.814 5.64497C164.306 4.57061 164.955 3.57111 165.695 2.64649C166.449 1.72186 167.26 0.883331 168.236 0.119672C168.48 -0.071243 168.837 -0.0300653 169.028 0.217001C169.22 0.460324 169.178 0.815949 168.931 1.00686C168.919 1.01435 168.908 1.02558 168.893 1.03307L168.874 1.04804Z" fill="#FDFBFA"/>
</svg>
