<svg width="34" height="34" viewBox="0 0 34 34" fill="none" xmlns="http://www.w3.org/2000/svg">
<path d="M25.8952 15.5024C26.8139 23.567 30.4211 26.0042 30.4211 26.0042H2C2 26.0042 6.73684 22.8037 6.73684 11.6017C6.73684 9.05515 7.73496 6.61293 9.51162 4.81227C11.2883 3.0116 13.6979 2 16.2105 2C16.7431 2 17.2711 2.04546 17.7895 2.13426" stroke="white" stroke-width="3" stroke-linecap="round" stroke-linejoin="round"/>
<path d="M27.2632 11.0016C29.8794 11.0016 32.0001 8.9865 32.0001 6.50079C32.0001 4.01508 29.8794 2 27.2632 2C24.6471 2 22.5264 4.01508 22.5264 6.50079C22.5264 8.9865 24.6471 11.0016 27.2632 11.0016Z" stroke="white" stroke-width="3" stroke-linecap="round" stroke-linejoin="round"/>
<path d="M18.9426 30.505C18.6651 30.9597 18.2667 31.3372 17.7872 31.5994C17.3078 31.8618 16.7643 32 16.2111 32C15.6578 32 15.1143 31.8618 14.635 31.5994C14.1556 31.3372 13.7571 30.9597 13.4795 30.505" stroke="white" stroke-width="3" stroke-linecap="round" stroke-linejoin="round"/>
</svg>
