<svg width="172" height="38" viewBox="0 0 172 38" fill="none" xmlns="http://www.w3.org/2000/svg">
<path d="M133.563 13.1557C133.563 16.5227 133.563 19.8838 133.563 23.2508C133.563 26.2326 132.419 28.7359 130.236 30.7666C128.384 32.488 126.237 33.7835 123.96 34.8747C122.314 35.6683 120.592 36.281 118.84 36.812C118.757 36.8353 118.686 36.8412 118.604 36.8178C115.406 35.8608 112.38 34.5479 109.631 32.6456C108.522 31.8812 107.443 31.0759 106.54 30.0664C105.119 28.485 104.24 26.6586 103.951 24.5579C103.886 24.0852 103.862 23.6009 103.862 23.1224C103.862 16.1842 103.862 9.25187 103.856 2.31369C103.856 2.10362 103.915 2.03943 104.11 2.01025C105.467 1.82352 106.829 1.64847 108.198 1.50842C109.773 1.34504 111.348 1.22249 112.929 1.12912C113.873 1.07077 114.822 1.0416 115.772 1.00659C116.981 0.965741 118.191 0.95407 119.4 0.959905C121.63 0.977411 123.86 1.07077 126.089 1.22832C127.965 1.36254 129.835 1.54927 131.699 1.77684C132.248 1.84687 132.791 1.9344 133.339 1.99859C133.516 2.02193 133.575 2.08028 133.575 2.27285C133.563 5.90824 133.563 9.53196 133.563 13.1557ZM122.532 18.2266C122.532 12.9923 122.532 7.75803 122.532 2.52376C122.532 2.47124 122.526 2.41872 122.532 2.36621C122.544 2.2495 122.497 2.22033 122.379 2.21449C121.712 2.20282 121.052 2.17364 120.385 2.15613C118.374 2.09778 116.368 2.15031 114.362 2.23784C112.61 2.3137 110.858 2.4479 109.112 2.62296C107.856 2.75134 106.605 2.90305 105.355 3.07811C105.113 3.11313 105.072 3.20649 105.072 3.42824C105.078 10.0688 105.078 16.7036 105.078 23.3441C105.078 24.3595 105.26 25.3398 105.62 26.2909C106.322 28.1291 107.555 29.5587 109.101 30.7608C111.944 32.9724 115.123 34.5421 118.568 35.5983C118.686 35.6333 118.787 35.6216 118.893 35.5924C120.043 35.2306 121.176 34.8222 122.285 34.3495C122.462 34.2736 122.532 34.1861 122.532 33.976C122.532 28.7243 122.532 23.4783 122.532 18.2266ZM123.753 9.36274C123.753 11.6268 123.753 13.8851 123.753 16.1492C123.753 16.441 123.753 16.441 124.037 16.441C126.726 16.441 129.416 16.441 132.106 16.4468C132.325 16.4468 132.372 16.3826 132.372 16.1725C132.366 12.7822 132.366 9.38608 132.366 5.99577C132.366 5.1088 132.366 4.22183 132.366 3.33487C132.366 3.18899 132.33 3.13064 132.171 3.11313C131.481 3.03144 130.797 2.9264 130.107 2.83887C129.009 2.69883 127.912 2.58795 126.815 2.50042C125.877 2.42457 124.939 2.37788 124.001 2.29619C123.783 2.27868 123.742 2.32537 123.742 2.5296C123.753 4.80537 123.753 7.08113 123.753 9.36274ZM123.783 33.6318C123.889 33.5792 123.995 33.5326 124.096 33.4742C124.786 33.1183 125.458 32.739 126.107 32.3188C127.541 31.3968 128.95 30.434 130.077 29.1386C131.092 27.9715 131.823 26.6644 132.153 25.1472C132.201 24.9313 132.159 24.8905 131.947 24.8905C129.304 24.8963 126.656 24.8963 124.013 24.8905C123.801 24.8905 123.736 24.9372 123.736 25.1531C123.742 27.9015 123.742 30.6499 123.742 33.3983C123.753 33.4742 123.73 33.5442 123.783 33.6318ZM128.048 19.8955C126.691 19.8955 125.328 19.9013 123.972 19.8896C123.777 19.8896 123.724 19.948 123.736 20.1289C123.748 20.2806 123.712 20.409 123.954 20.409C126.685 20.4031 129.422 20.4031 132.153 20.409C132.389 20.409 132.366 20.2864 132.372 20.1289C132.383 19.9538 132.342 19.8838 132.142 19.8838C130.779 19.8955 129.41 19.8955 128.048 19.8955ZM128.048 21.8911C126.691 21.8911 125.328 21.897 123.972 21.8853C123.777 21.8853 123.724 21.9436 123.736 22.1245C123.748 22.2763 123.712 22.4046 123.954 22.4046C126.685 22.3988 129.422 22.3988 132.153 22.4046C132.389 22.4046 132.366 22.2821 132.372 22.1245C132.383 21.9495 132.342 21.8795 132.142 21.8795C130.779 21.897 129.41 21.8911 128.048 21.8911ZM128.054 23.8868V23.8926C126.679 23.8926 125.305 23.8985 123.93 23.8868C123.712 23.8868 123.73 24.0093 123.736 24.1436C123.742 24.2719 123.7 24.4061 123.924 24.4061C126.644 24.4003 129.369 24.4003 132.089 24.4061C132.425 24.4061 132.271 24.1436 132.307 23.9977C132.354 23.8168 132.171 23.8868 132.094 23.8868C130.744 23.8868 129.399 23.8868 128.054 23.8868ZM128.066 17.4038C129.428 17.4038 130.785 17.4038 132.148 17.4038C132.218 17.4038 132.33 17.4388 132.354 17.3688C132.383 17.2462 132.389 17.1003 132.36 16.9778C132.336 16.8611 132.212 16.9136 132.13 16.9136C129.416 16.9136 126.703 16.9136 123.989 16.9078C123.783 16.9078 123.742 16.9778 123.748 17.1645C123.748 17.3396 123.771 17.4213 123.983 17.4213C125.346 17.3979 126.703 17.4038 128.066 17.4038ZM128.048 17.8939C126.697 17.8939 125.34 17.8998 123.989 17.8881C123.783 17.8881 123.742 17.9523 123.748 18.139C123.753 18.3141 123.765 18.4016 123.983 18.4016C126.703 18.3958 129.422 18.3958 132.142 18.4016C132.366 18.4016 132.372 18.3024 132.372 18.1332C132.378 17.964 132.354 17.8881 132.148 17.8881C130.785 17.8939 129.416 17.8939 128.048 17.8939ZM128.066 19.3995C129.422 19.3995 130.785 19.3936 132.142 19.4053C132.336 19.4053 132.378 19.3469 132.372 19.166C132.366 19.0027 132.372 18.9035 132.142 18.9035C129.422 18.9151 126.703 18.9093 123.983 18.9035C123.777 18.9035 123.736 18.9676 123.736 19.1544C123.736 19.3411 123.771 19.4053 123.978 19.4053C125.346 19.3936 126.709 19.3995 128.066 19.3995ZM128.066 20.905C126.709 20.905 125.346 20.9108 123.989 20.8991C123.777 20.8991 123.753 20.975 123.748 21.1559C123.742 21.3485 123.795 21.401 123.995 21.401C126.715 21.3951 129.434 21.3951 132.153 21.401C132.354 21.401 132.384 21.3309 132.384 21.1617C132.378 20.9925 132.372 20.8991 132.148 20.8991C130.785 20.9108 129.422 20.905 128.066 20.905ZM128.048 23.3966C129.416 23.3966 130.785 23.3966 132.148 23.3966C132.218 23.3966 132.325 23.4316 132.348 23.3558C132.389 23.2274 132.378 23.0874 132.33 22.9648C132.295 22.8598 132.189 22.9065 132.112 22.9065C129.399 22.9065 126.685 22.9065 123.978 22.9006C123.759 22.9006 123.742 22.9823 123.736 23.1574C123.73 23.3441 123.777 23.4083 123.983 23.4083C125.346 23.3908 126.697 23.3966 128.048 23.3966Z" fill="#FDFBFA"/>
<path d="M163.818 2.50037C163.812 2.24945 163.718 2.15025 163.464 2.15025C162.449 2.14442 161.429 2.14442 160.414 2.15025C160.107 2.15025 160.001 2.26112 160.001 2.57039C160.001 3.17143 160.001 3.76663 160.001 4.36767V10.9499C159.954 10.9324 159.93 10.9324 159.913 10.9207C158.615 10.0279 157.182 9.70697 155.624 9.90537C154.445 10.0571 153.412 10.5064 152.616 11.3992C151.613 12.5254 151.224 13.8967 151.035 15.3439C150.899 16.365 150.882 17.3921 150.946 18.4132C151.017 19.4753 151.171 20.5256 151.572 21.5234C152.014 22.6322 152.693 23.5425 153.813 24.0501C155.111 24.6337 156.456 24.6453 157.813 24.2894C158.757 24.0443 159.582 23.56 160.379 23.029C160.526 22.9298 160.55 22.9764 160.591 23.1048C160.686 23.4083 160.809 23.7 160.892 24.0035C160.957 24.231 161.087 24.3011 161.317 24.3011C161.989 24.2894 162.662 24.2952 163.334 24.2952C163.777 24.2952 163.818 24.2544 163.818 23.8167V2.63458C163.818 2.59373 163.818 2.54705 163.818 2.50037ZM159.795 20.9924C159.164 21.3075 158.503 21.5293 157.777 21.5293C157.323 21.5293 156.869 21.5293 156.444 21.3426C155.748 21.0391 155.371 20.4789 155.164 19.7845C155.034 19.3586 154.981 18.9151 154.934 18.4716C154.863 17.853 154.881 17.2345 154.905 16.6218C154.94 15.7173 155.082 14.8187 155.536 14.0076C155.896 13.3657 156.427 12.9397 157.182 12.8289C158.161 12.683 159.028 12.9806 159.854 13.4591C159.954 13.5174 159.966 13.6166 159.966 13.7275C159.96 14.8945 159.966 16.0616 159.966 17.2287C159.966 18.3841 159.96 19.5336 159.972 20.689C159.966 20.8349 159.919 20.9341 159.795 20.9924Z" fill="#FDFBFA"/>
<path d="M145.461 22.9648C144.995 23.2566 144.541 23.5367 144.063 23.7759C142.5 24.5404 140.854 24.6979 139.161 24.3595C137.769 24.0794 136.99 23.1632 136.642 21.8386C136.43 21.0334 136.353 20.2106 136.353 19.382C136.347 16.4176 136.353 13.4533 136.353 10.489C136.353 10.1272 136.412 10.063 136.784 10.063C137.763 10.063 138.742 10.063 139.721 10.063C140.105 10.063 140.182 10.1388 140.182 10.5181C140.182 13.2549 140.182 15.9917 140.182 18.7226C140.182 19.3061 140.229 19.8896 140.412 20.4498C140.665 21.2084 141.19 21.5819 141.993 21.6227C142.978 21.6694 143.898 21.4477 144.765 20.9925C144.901 20.9225 144.942 20.8408 144.942 20.6891C144.936 17.2871 144.936 13.8851 144.936 10.489C144.936 10.1447 145.001 10.0747 145.349 10.0688C146.352 10.063 147.355 10.063 148.352 10.0688C148.67 10.0688 148.747 10.1505 148.747 10.4656C148.747 14.9296 148.747 19.3936 148.747 23.8635C148.747 24.2253 148.664 24.307 148.298 24.307C147.608 24.307 146.924 24.307 146.234 24.307C145.957 24.307 145.868 24.2369 145.78 23.9744C145.679 23.6417 145.573 23.3091 145.461 22.9648Z" fill="#FDFBFA"/>
<path d="M171.977 17.1704C171.977 19.3878 171.977 21.6052 171.977 23.8226C171.977 24.2311 171.906 24.3011 171.499 24.3011C170.567 24.3011 169.629 24.3011 168.697 24.3011C168.207 24.3011 168.154 24.2486 168.154 23.7701C168.154 21.5994 168.154 19.4228 168.154 17.2521C168.154 15.9041 168.148 14.562 168.16 13.2141C168.16 13.0332 168.119 12.9748 167.93 12.9807C167.228 12.9923 166.526 12.9865 165.824 12.9865C165.453 12.9865 165.382 12.9165 165.376 12.5488C165.376 11.8486 165.376 11.1425 165.376 10.4423C165.376 10.1564 165.435 10.0863 165.724 10.0747C166.001 10.063 166.279 10.0688 166.556 10.0688C168.202 10.0688 169.841 10.0688 171.487 10.0688C171.936 10.0688 171.983 10.1155 171.983 10.5648C171.977 12.7647 171.977 14.9647 171.977 17.1704Z" fill="#FDFBFA"/>
<path d="M97.7271 19.026C97.7271 24.9663 97.7271 30.9125 97.733 36.8528C97.733 37.0512 97.6917 37.1154 97.4793 37.1037C97.1136 37.0862 96.7479 37.0804 96.3821 37.1037C96.1698 37.1154 96.1167 37.0395 96.1462 36.8586C96.1462 36.8528 96.1462 36.8411 96.1462 36.8353C96.1462 24.9488 96.1462 13.0623 96.1403 1.17578C96.1403 0.959869 96.1816 0.884013 96.4175 0.895683C96.7951 0.919024 97.1785 0.907351 97.5619 0.901515C97.6858 0.901515 97.7448 0.930694 97.7271 1.05907C97.7212 1.11159 97.7271 1.16411 97.7271 1.21663C97.7271 7.15113 97.7271 13.0856 97.7271 19.026Z" fill="#FAF8F8"/>
<path d="M67.1883 4.6303C67.1883 4.712 67.1883 4.78786 67.1883 4.86955C67.1883 6.92358 67.1883 8.9776 67.1942 11.0375C67.1942 11.2125 67.1588 11.2884 66.9642 11.2709C66.7282 11.2534 66.4864 11.2592 66.2445 11.2709C66.0911 11.2767 66.0439 11.2359 66.0439 11.0783C66.0498 10.3197 66.0498 9.5553 66.0498 8.79671C66.0498 6.75435 66.0557 4.71784 66.0439 2.67548C66.0439 2.47125 66.097 2.42456 66.2917 2.43623C66.51 2.4479 66.681 2.45957 66.8521 2.65797C68.6867 4.78202 70.533 6.88857 72.3794 9.00095C72.4089 9.03012 72.4207 9.08264 72.4796 9.08264C72.5327 9.01262 72.5032 8.93092 72.5032 8.85507C72.5032 6.80104 72.5091 4.74701 72.4973 2.68715C72.4973 2.49458 72.5386 2.42456 72.7392 2.44206C72.9692 2.45957 73.2052 2.45957 73.4353 2.44206C73.6004 2.43039 73.6299 2.48874 73.6299 2.64046C73.624 4.27435 73.624 5.90824 73.624 7.54212C73.624 8.70918 73.6181 9.87624 73.6299 11.0491C73.6299 11.23 73.5886 11.2767 73.3999 11.2884C73.1226 11.3059 72.9516 11.2067 72.7805 11.0025C71.3294 9.32189 69.8723 7.65299 68.4153 5.9841C68.0201 5.53478 67.6308 5.07962 67.2355 4.6303C67.2237 4.61863 67.206 4.62447 67.1883 4.6303Z" fill="#FAF8F8"/>
<path d="M55.4851 11.0083C54.7477 9.82371 54.0103 8.6333 53.2671 7.44873C53.1845 7.32036 53.155 7.25617 53.3497 7.22699C53.5384 7.19781 53.7213 7.12779 53.8983 7.04026C54.8893 6.56177 55.3966 5.48807 55.1665 4.33852C54.9601 3.30567 54.028 2.49456 52.9249 2.47122C51.5446 2.43621 50.1584 2.45955 48.778 2.44788C48.5893 2.44788 48.5303 2.48289 48.5303 2.68129C48.5421 4.97457 48.5362 7.262 48.5362 9.55528C48.5362 10.0746 48.5421 10.5881 48.5362 11.1075C48.5362 11.23 48.5657 11.2767 48.6954 11.2709C48.9491 11.2592 49.2027 11.2534 49.4564 11.2709C49.6334 11.2825 49.6629 11.2242 49.6629 11.0608C49.657 9.88789 49.6629 8.70916 49.657 7.53626C49.657 7.37871 49.6806 7.30869 49.8693 7.31452C50.4887 7.3262 51.1081 7.3262 51.7275 7.31452C51.8749 7.31452 51.9516 7.3612 52.0224 7.48374C52.7539 8.69165 53.4912 9.89956 54.2227 11.1016C54.2758 11.1892 54.3171 11.2709 54.4528 11.2709C54.8303 11.2592 55.2137 11.265 55.6325 11.265C55.5735 11.16 55.5323 11.0841 55.4851 11.0083ZM51.3617 6.27C50.7836 6.27 50.2999 6.26417 49.8221 6.27C49.6982 6.27 49.657 6.24083 49.6629 6.11245C49.6688 5.30135 49.6688 4.49024 49.6629 3.67329C49.6629 3.55075 49.6865 3.50991 49.8162 3.50991C50.7954 3.51574 51.7747 3.47489 52.748 3.52741C53.5207 3.56826 54.0516 4.07009 54.0929 4.84035C54.1283 5.52892 53.6269 6.09494 52.9426 6.21748C52.3881 6.32252 51.8218 6.23499 51.3617 6.27Z" fill="#FAF8F8"/>
<path d="M7.01964 11.1366C6.25869 9.91122 5.49773 8.68581 4.73088 7.46623C4.64239 7.32034 4.61879 7.26783 4.83115 7.22115C6.03453 6.92938 6.79549 5.86736 6.67161 4.68863C6.53593 3.4107 5.62161 2.50039 4.35924 2.47121C2.93171 2.4362 1.50418 2.45954 0.0766455 2.45371C0.0530499 2.45371 0.0353551 2.46537 0.0117595 2.47121C0.0117595 2.47705 0.0117595 2.48871 0.0117595 2.49455C0.0117595 4.46104 0.00585938 6.42754 0.00585938 8.39404C0.00585938 9.05926 0.00586064 9.72449 0.0117595 10.3897C0.0117595 10.6056 0.0235573 10.8157 0.0117595 11.0316C0.00586064 11.1775 0.0412528 11.2475 0.206422 11.2417C0.436479 11.23 0.666537 11.23 0.896594 11.2417C1.04407 11.2475 1.09126 11.195 1.08536 11.0491C1.07946 10.5123 1.07946 9.97541 1.08536 9.43856C1.08536 9.35687 1.06176 9.27517 1.11485 9.19931C1.12075 8.57494 1.12665 7.94472 1.13255 7.32034C1.18564 7.2795 1.24463 7.29117 1.30362 7.29117C1.97609 7.30284 2.65446 7.26782 3.32694 7.30867C3.35053 7.32034 3.38003 7.32618 3.40362 7.33202C3.41542 7.33785 3.42132 7.34952 3.42722 7.36703C4.19407 8.63912 4.96683 9.91122 5.73369 11.1775C5.75728 11.2183 5.78088 11.265 5.85166 11.265C6.25869 11.265 6.66571 11.265 7.09633 11.265C7.05504 11.2008 7.03734 11.1716 7.01964 11.1366ZM3.68677 6.26416C2.89632 6.26416 2.09997 6.25832 1.30951 6.26999C1.16794 6.26999 1.12075 6.23498 1.12665 6.0891C1.13255 5.28966 1.13255 4.49023 1.12665 3.69663C1.12665 3.55658 1.15614 3.50989 1.30951 3.50989C1.79322 3.52156 2.28283 3.51573 2.76654 3.51573C3.21486 3.51573 3.66317 3.52156 4.11149 3.51573C4.68958 3.50405 5.33256 3.95338 5.49183 4.51357C5.72189 5.32467 5.17919 6.07159 4.39464 6.22331C4.15868 6.26999 3.92273 6.26416 3.68677 6.26416Z" fill="#FDFBFA"/>
<path d="M48.0049 19.2943C48.0049 16.4 49.7686 14.5386 52.1754 14.3869C53.6619 14.2935 54.942 14.7428 55.9507 15.8515C56.3282 16.2658 56.5937 16.756 56.7824 17.2812C56.8237 17.392 56.7942 17.4329 56.6822 17.4679C56.4226 17.5437 56.1689 17.6196 55.9153 17.713C55.7796 17.7655 55.7442 17.7188 55.697 17.6021C55.3313 16.6218 54.6706 15.9332 53.656 15.6064C51.6622 14.9704 49.4855 16.0149 49.1729 18.2673C48.8543 20.5139 50.5237 22.2703 52.724 22.1303C54.2046 22.0369 55.2015 21.29 55.7088 19.9129C55.7619 19.7728 55.815 19.7728 55.933 19.8137C56.1748 19.8954 56.4167 19.9712 56.6586 20.0354C56.8119 20.0763 56.8414 20.1288 56.7824 20.2805C56.2397 21.7393 55.2074 22.6905 53.6855 23.0581C51.9984 23.4607 50.4824 23.099 49.2318 21.8735C48.3883 21.0216 48.0108 19.9654 48.0049 19.2943Z" fill="#FAF8F8"/>
<path d="M67.171 18.7808C67.171 17.3862 67.1769 15.9857 67.1651 14.5911C67.1651 14.4044 67.2182 14.3635 67.401 14.3635C69.2238 14.3694 71.0465 14.3694 72.8693 14.3635C73.0345 14.3635 73.0935 14.3985 73.0758 14.5678C73.0581 14.7662 73.0581 14.9704 73.0758 15.1688C73.0935 15.3555 73.0463 15.4139 72.8398 15.4139C71.3946 15.4022 69.9553 15.4139 68.51 15.4022C68.3213 15.4022 68.28 15.4489 68.28 15.6298C68.2918 16.2892 68.2918 16.9486 68.28 17.6021C68.2741 17.7947 68.339 17.8297 68.5218 17.8297C69.6308 17.8239 70.7339 17.8297 71.8429 17.8239C72.0199 17.8239 72.073 17.8705 72.0612 18.0456C72.0435 18.2615 72.0494 18.4774 72.0612 18.6875C72.0671 18.8334 72.0258 18.8684 71.8783 18.8684C70.7575 18.8625 69.6367 18.8684 68.5159 18.8625C68.3272 18.8625 68.2859 18.9151 68.2859 19.0901C68.2977 20.0354 68.2977 20.9808 68.2859 21.9261C68.2859 22.107 68.3272 22.1595 68.5159 22.1595C69.967 22.1537 71.4182 22.1595 72.8634 22.1536C73.0286 22.1536 73.0876 22.1828 73.0758 22.3579C73.0581 22.5738 73.0581 22.7897 73.0758 22.9998C73.0876 23.169 73.0286 23.204 72.8634 23.204C71.3297 23.1982 69.8019 23.1982 68.2682 23.1982C67.9673 23.1982 67.6724 23.1865 67.3715 23.204C67.2005 23.2098 67.1592 23.1632 67.1592 22.9939C67.1769 21.5935 67.171 20.1872 67.171 18.7808Z" fill="#FAF8F8"/>
<path d="M38.4376 11.1191C37.2697 8.28316 36.0958 5.44721 34.9278 2.60541C34.8747 2.47704 34.8098 2.44786 34.68 2.4537C34.4323 2.45953 34.1845 2.46537 33.9427 2.4537C33.8011 2.44786 33.7362 2.48871 33.6831 2.62292C32.6862 5.04457 31.6834 7.46622 30.6806 9.88787C30.4918 10.343 30.309 10.7982 30.1084 11.2767C30.4741 11.2767 30.8104 11.2708 31.1466 11.2825C31.2764 11.2883 31.3236 11.2358 31.3708 11.125C31.5654 10.6231 31.7778 10.1271 31.9724 9.62528C32.0196 9.50274 32.0786 9.46189 32.2143 9.46189C33.6123 9.46773 35.0104 9.46773 36.4084 9.46189C36.5323 9.46189 36.5913 9.50275 36.6326 9.61362C36.8331 10.1213 37.0455 10.6231 37.252 11.1308C37.2933 11.23 37.3404 11.2825 37.4584 11.2767C37.7947 11.265 38.1309 11.2708 38.4966 11.2708C38.4671 11.2008 38.4553 11.1541 38.4376 11.1191ZM32.4857 8.3882C33.0932 6.89436 33.6949 5.4122 34.3084 3.89502C34.916 5.4122 35.5177 6.9002 36.1135 8.3882H32.4857Z" fill="#FAF8F8"/>
<path d="M89.8399 22.9822C88.6778 20.1755 87.5158 17.3687 86.3655 14.5619C86.3065 14.4219 86.2357 14.3752 86.0882 14.3868C85.8523 14.3985 85.6104 14.3985 85.3686 14.3868C85.2152 14.3752 85.1562 14.4277 85.0972 14.5677C83.9882 17.2578 82.8733 19.9479 81.7643 22.6438C81.6936 22.8189 81.5048 23.0464 81.5815 23.1631C81.6759 23.3032 81.9531 23.1865 82.1124 23.2098C82.2598 23.2098 82.3719 23.1982 82.484 23.2098C82.6728 23.2332 82.7554 23.1631 82.8202 22.9881C82.9972 22.5038 83.2037 22.0311 83.3924 21.5526C83.4337 21.4476 83.4809 21.395 83.6166 21.395C85.0205 21.4009 86.4245 21.4009 87.8284 21.395C87.9582 21.395 88.0113 21.4359 88.0526 21.5468C88.2531 22.0486 88.4655 22.5446 88.6542 23.0464C88.7073 23.1865 88.7781 23.2215 88.9138 23.2157C89.1675 23.204 89.4211 23.1982 89.6748 23.2157C89.8989 23.2215 89.9166 23.1631 89.8399 22.9822ZM87.4096 20.333C86.2888 20.333 85.168 20.333 84.0472 20.333C83.9233 20.333 83.9174 20.298 83.9587 20.1871C84.5309 18.7983 85.0972 17.4095 85.6694 16.0149C85.693 15.9624 85.6576 15.8865 85.752 15.869C85.982 16.4292 86.2121 17.0011 86.4422 17.5671C86.7961 18.4424 87.15 19.3235 87.504 20.1988C87.5453 20.298 87.5158 20.333 87.4096 20.333Z" fill="#FAF8F8"/>
<path d="M64.7111 11.1191C64.5754 10.8099 64.4515 10.4948 64.3217 10.1797C63.2776 7.65297 62.2394 5.13212 61.2012 2.60543C61.154 2.49456 61.1009 2.44788 60.9771 2.45372C60.7293 2.46539 60.4816 2.46539 60.2397 2.45372C60.0804 2.44205 60.0097 2.5004 59.9507 2.64629C59.0717 4.78201 58.1869 6.91772 57.3021 9.05344C57.0012 9.78286 56.7004 10.5123 56.3818 11.2709C56.7476 11.2709 57.0779 11.265 57.4023 11.2767C57.538 11.2825 57.597 11.23 57.6442 11.1075C57.8389 10.6115 58.0453 10.1213 58.2341 9.6253C58.2872 9.49693 58.3521 9.45024 58.4936 9.45024C59.8858 9.45608 61.272 9.45608 62.6642 9.45024C62.7998 9.45024 62.8588 9.49693 62.906 9.61364C63.1007 10.1155 63.313 10.6115 63.5136 11.1133C63.5549 11.2242 63.608 11.2767 63.7378 11.2709C64.0268 11.2592 64.3217 11.2592 64.6108 11.2709C64.7465 11.2709 64.7583 11.23 64.7111 11.1191ZM58.7532 8.38822C59.3608 6.89438 59.9625 5.41221 60.5818 3.8892C61.1953 5.41221 61.7911 6.90022 62.3869 8.38822H58.7532Z" fill="#FAF8F8"/>
<path d="M32.627 18.775C32.627 17.3804 32.6329 15.9799 32.6211 14.5853C32.6211 14.4102 32.6624 14.3635 32.8394 14.3635C34.6621 14.3694 36.4849 14.3694 38.3076 14.3635C38.4669 14.3635 38.5377 14.3869 38.5259 14.5678C38.5082 14.772 38.5082 14.9821 38.5259 15.1863C38.5436 15.3847 38.461 15.408 38.2899 15.408C36.8447 15.4022 35.4054 15.408 33.9601 15.3964C33.7714 15.3964 33.7301 15.443 33.7301 15.6239C33.7419 16.2892 33.7419 16.9544 33.7301 17.6196C33.7301 17.783 33.7596 17.8297 33.9365 17.8297C35.0573 17.818 36.1781 17.8297 37.2989 17.818C37.4641 17.818 37.5231 17.853 37.5054 18.0223C37.4877 18.2265 37.4877 18.4366 37.5054 18.6408C37.5231 18.8392 37.4464 18.8625 37.2694 18.8625C36.1545 18.8567 35.0396 18.8625 33.9306 18.8567C33.7832 18.8567 33.7301 18.88 33.7301 19.0434C33.736 20.0121 33.736 20.9808 33.7301 21.9494C33.7301 22.1128 33.7655 22.1536 33.9365 22.1536C35.3582 22.1478 36.7739 22.1478 38.1956 22.1478C38.52 22.1478 38.52 22.1478 38.52 22.4804C38.52 22.6555 38.5082 22.8364 38.5259 23.0114C38.5377 23.1632 38.4787 23.1982 38.3371 23.1923C37.2517 23.1865 36.1722 23.1865 35.0868 23.1865C34.3377 23.1865 33.5944 23.1807 32.8453 23.1923C32.6742 23.1923 32.6211 23.1573 32.6211 22.9764C32.6329 21.5818 32.627 20.1813 32.627 18.775Z" fill="#FAF8F8"/>
<path d="M8.62406 6.83608C8.62406 5.44727 8.62996 4.05847 8.61816 2.66384C8.61816 2.48878 8.64766 2.43042 8.84232 2.43042C10.6592 2.44209 12.476 2.44209 14.2929 2.43042C14.4994 2.43042 14.5525 2.48295 14.5348 2.67551C14.5171 2.87975 14.5171 3.08982 14.5348 3.29405C14.5525 3.47495 14.4522 3.47494 14.3224 3.47494C12.8713 3.46911 11.4201 3.47494 9.96901 3.4691C9.76845 3.4691 9.72715 3.52162 9.72715 3.70835C9.73895 4.37358 9.73895 5.0388 9.72715 5.70403C9.72126 5.88492 9.78614 5.9141 9.95131 5.9141C11.0662 5.90826 12.1811 5.9141 13.2901 5.90826C13.4494 5.90826 13.5142 5.93744 13.5024 6.1125C13.4848 6.32841 13.4906 6.54431 13.5024 6.75438C13.5142 6.90026 13.4612 6.93527 13.3137 6.93527C12.1929 6.92944 11.0721 6.93528 9.95131 6.92944C9.75665 6.92944 9.72715 6.98196 9.72715 7.16285C9.73895 8.11401 9.73305 9.071 9.72715 10.0222C9.72715 10.1855 9.76255 10.2322 9.93361 10.2264C11.3906 10.2205 12.8477 10.2264 14.3047 10.2206C14.4758 10.2206 14.5407 10.2556 14.5289 10.4365C14.5112 10.6582 14.5171 10.8799 14.5289 11.1017C14.5348 11.2184 14.5053 11.2709 14.3696 11.2709C12.4996 11.2651 10.6297 11.2651 8.76564 11.2709C8.58867 11.2709 8.62406 11.1717 8.62406 11.0725C8.62406 9.66037 8.62406 8.24822 8.62406 6.83608Z" fill="#FAF8F8"/>
<path d="M84.1123 6.84775C84.1123 5.44144 84.1182 4.04097 84.1064 2.63466C84.1064 2.46544 84.1536 2.43042 84.3188 2.43042C86.1416 2.43626 87.9643 2.43626 89.7871 2.43042C89.9581 2.43042 90.0289 2.46544 90.0112 2.64633C89.9935 2.85057 89.9935 3.06064 90.0112 3.26487C90.0289 3.4516 89.9522 3.47494 89.7871 3.47494C88.3477 3.46911 86.9025 3.47494 85.4632 3.46327C85.2567 3.46327 85.2213 3.52162 85.2272 3.70835C85.239 4.36774 85.2449 5.0213 85.2272 5.68069C85.2213 5.88492 85.2921 5.9141 85.475 5.9141C86.5781 5.90826 87.6871 5.9141 88.7902 5.90826C88.9494 5.90826 89.0202 5.9316 89.0025 6.10666C88.9848 6.3109 88.9848 6.52097 89.0025 6.7252C89.0143 6.88859 88.9671 6.93527 88.7961 6.93527C87.6812 6.92944 86.5663 6.93528 85.4573 6.92361C85.2685 6.92361 85.2272 6.96446 85.2272 7.15119C85.239 8.09067 85.239 9.03015 85.2272 9.96964C85.2272 10.1622 85.2626 10.2264 85.475 10.2264C86.9084 10.2147 88.3418 10.2264 89.7812 10.2147C89.964 10.2147 90.0348 10.2497 90.0171 10.4423C89.9994 10.6465 89.9994 10.8566 90.0171 11.0608C90.0289 11.2242 89.9817 11.2709 89.8107 11.2709C88.8786 11.2592 87.9407 11.2651 87.0087 11.2651C86.1298 11.2651 85.2449 11.2592 84.366 11.2709C84.1772 11.2709 84.1182 11.2417 84.1182 11.0375C84.1182 9.63702 84.1123 8.24239 84.1123 6.84775Z" fill="#FAF8F8"/>
<path d="M19.3253 11.2651C17.9332 11.2242 16.7829 10.6815 15.8096 9.74204C15.7093 9.64284 15.7093 9.59032 15.8096 9.49696C15.9866 9.32773 16.1517 9.14684 16.311 8.96011C16.3995 8.85507 16.4408 8.84924 16.5469 8.95428C17.1604 9.57866 17.8919 10.0105 18.7649 10.1563C19.5023 10.2789 20.2102 10.2089 20.8295 9.73621C21.4135 9.29272 21.5787 8.47579 21.1953 7.94477C21.0242 7.71136 20.7824 7.56548 20.5228 7.44877C19.8857 7.17451 19.2074 7.07531 18.5408 6.9236C18.004 6.80105 17.4672 6.67851 16.9717 6.41592C15.8804 5.83822 15.5795 4.57196 16.2933 3.56246C16.8006 2.85055 17.538 2.55296 18.3756 2.46543C19.6852 2.33121 20.8295 2.73385 21.8265 3.57413C21.9562 3.685 21.9621 3.74336 21.8383 3.86006C21.679 4.01178 21.5256 4.181 21.3899 4.35606C21.3015 4.46693 21.2543 4.4786 21.1422 4.37356C20.4756 3.77253 19.6852 3.46326 18.7767 3.47493C18.2753 3.48077 17.7975 3.5858 17.4023 3.91841C16.9127 4.33855 16.7947 5.19051 17.6441 5.5523C18.2163 5.79738 18.8298 5.88491 19.4374 6.00162C20.104 6.13583 20.7588 6.28754 21.3604 6.62599C22.8293 7.44877 22.7762 9.31607 21.856 10.2672C21.154 10.9966 20.2751 11.2417 19.3253 11.2651Z" fill="#FAF8F8"/>
<path d="M43.6691 23.1982C42.2475 23.1691 41.0795 22.6089 40.0944 21.6519C40.0177 21.576 40.0236 21.5293 40.0944 21.4535C40.2714 21.2726 40.4483 21.0917 40.6135 20.8991C40.7079 20.7882 40.761 20.7824 40.8671 20.8933C41.4688 21.5177 42.2003 21.9378 43.0674 22.0837C43.8107 22.2121 44.5304 22.1362 45.1497 21.6577C45.7219 21.2142 45.8812 20.409 45.5096 19.8779C45.3149 19.6095 45.0377 19.452 44.7368 19.3353C44.1292 19.0902 43.4863 18.991 42.8551 18.8509C42.3655 18.7459 41.8876 18.6117 41.4275 18.4133C39.7463 17.7014 40.0177 15.7641 41.0854 14.9763C41.7461 14.492 42.507 14.3344 43.3034 14.3636C44.3711 14.3986 45.3031 14.7954 46.1172 15.4781C46.2705 15.6065 46.2823 15.6824 46.1348 15.8166C45.9756 15.9625 45.834 16.1258 45.6983 16.2951C45.6158 16.4059 45.5686 16.4059 45.4624 16.3126C44.7899 15.7057 43.9936 15.3964 43.0792 15.4081C42.5896 15.4139 42.1118 15.5131 41.7284 15.8516C41.1149 16.3826 41.227 17.1645 41.9761 17.4913C42.5483 17.7422 43.1618 17.8239 43.7694 17.9406C44.3947 18.0632 45.0082 18.209 45.5745 18.5008C47.0492 19.2536 47.1023 20.94 46.3885 21.9378C45.8458 22.6906 45.0672 23.0407 44.1646 23.1574C43.9877 23.1807 43.8166 23.1866 43.6691 23.1982Z" fill="#FAF8F8"/>
<path d="M39.753 5.33642C39.753 4.43195 39.7589 3.53331 39.7471 2.62884C39.7471 2.48296 39.7766 2.41876 39.9359 2.43043C40.1718 2.4421 40.4137 2.44794 40.6555 2.43043C40.8502 2.41293 40.8679 2.50045 40.8679 2.65801C40.862 4.3094 40.862 5.95496 40.8679 7.60635C40.8679 8.23073 40.9977 8.82593 41.4047 9.32776C42.0536 10.1272 42.9148 10.3606 43.8881 10.133C44.8615 9.90546 45.4218 9.2519 45.6342 8.29491C45.6755 8.10818 45.6814 7.91562 45.6814 7.72305C45.6814 6.03665 45.6814 4.35025 45.6755 2.66385C45.6755 2.47712 45.7286 2.4246 45.9115 2.43627C46.1592 2.45378 46.407 2.44211 46.6488 2.43627C46.7668 2.43044 46.8199 2.45961 46.8199 2.59382C46.814 4.33857 46.8435 6.08333 46.8081 7.82809C46.7727 9.48531 45.7109 10.7866 44.1713 11.16C42.1421 11.6502 40.2544 10.5007 39.8179 8.50498C39.7589 8.24239 39.7412 7.97981 39.7412 7.71138C39.753 6.91778 39.753 6.12418 39.753 5.33642Z" fill="#FAF8F8"/>
<path d="M59.5193 17.2579C59.5193 18.1449 59.4898 19.0318 59.5252 19.9188C59.5783 21.1792 60.5929 22.142 61.8847 22.142C63.4421 22.1479 64.2207 20.9983 64.3033 19.9713C64.3623 19.2127 64.3269 18.4483 64.3328 17.6897C64.3387 16.6452 64.3387 15.6065 64.3269 14.562C64.3269 14.3869 64.3741 14.3519 64.5393 14.3577C64.7929 14.3694 65.0466 14.3636 65.3002 14.3577C65.4123 14.3577 65.4595 14.3752 65.4536 14.4978C65.4477 16.3009 65.5008 18.104 65.4241 19.9071C65.3474 21.6519 64.0732 23.0698 62.1207 23.1749C60.0738 23.2858 58.4339 21.8328 58.3867 19.8079C58.3454 18.0398 58.3749 16.2776 58.369 14.5095C58.369 14.3753 58.4221 14.3519 58.5401 14.3577C58.7996 14.3636 59.0651 14.3694 59.3246 14.3577C59.478 14.3519 59.5075 14.4103 59.5075 14.5445C59.5016 15.4489 59.5016 16.3476 59.5016 17.2521C59.5075 17.2579 59.5134 17.2579 59.5193 17.2579Z" fill="#FAF8F8"/>
<path d="M172 5.12619C171.994 5.31292 171.977 5.56968 171.906 5.8206C171.67 6.66088 171.039 7.19189 170.171 7.28525C169.741 7.33193 169.31 7.3261 168.886 7.20939C168.13 6.99932 167.67 6.50915 167.487 5.75057C167.364 5.23706 167.369 4.72356 167.511 4.21589C167.712 3.50398 168.178 3.02548 168.909 2.83291C169.481 2.6812 170.065 2.68703 170.626 2.86793C171.528 3.17136 172 3.93579 172 5.12619Z" fill="#FDFBFA"/>
<path d="M79.4344 7.39049C79.4344 8.61007 79.4285 9.82965 79.4403 11.0492C79.4403 11.2185 79.4049 11.2885 79.222 11.271C78.9978 11.2535 78.7737 11.2535 78.5495 11.271C78.349 11.2885 78.29 11.2301 78.29 11.0201C78.3018 8.91934 78.2959 6.82447 78.2959 4.72377C78.2959 4.38532 78.2841 4.04104 78.3018 3.70259C78.3077 3.53336 78.2664 3.48084 78.0835 3.48084C77.2046 3.49251 76.3197 3.47501 75.4408 3.49252C75.2343 3.49835 75.1871 3.43416 75.1989 3.24159C75.2166 3.01402 75.2048 2.78644 75.1989 2.55303C75.1989 2.45967 75.2284 2.41298 75.3287 2.42466C75.3759 2.43049 75.4172 2.42466 75.4644 2.42466C77.7414 2.42466 80.0242 2.42466 82.3012 2.41882C82.49 2.41882 82.5726 2.44799 82.549 2.65806C82.5254 2.8623 82.5313 3.07238 82.549 3.27661C82.5608 3.44 82.5136 3.48668 82.3425 3.48668C81.4636 3.47501 80.5787 3.48668 79.6998 3.48084C79.5051 3.48084 79.4344 3.51585 79.4403 3.72593C79.4403 4.95717 79.4344 6.17092 79.4344 7.39049Z" fill="#FAF8F8"/>
<path d="M27.3647 7.37878C27.3647 8.60419 27.3588 9.82961 27.3706 11.0609C27.3706 11.2242 27.3352 11.2826 27.1641 11.2709C26.9046 11.2534 26.6392 11.2651 26.3796 11.2709C26.2734 11.2709 26.2262 11.2418 26.238 11.1367C26.2439 11.0842 26.238 11.0317 26.238 10.9792C26.238 8.56335 26.238 6.14753 26.2439 3.73172C26.2439 3.53332 26.1908 3.48664 25.9962 3.48664C25.1172 3.49831 24.2324 3.48663 23.3535 3.4983C23.1883 3.4983 23.1293 3.46329 23.1411 3.29407C23.1588 3.06649 23.1529 2.83308 23.1411 2.6055C23.1352 2.45962 23.1883 2.43628 23.3181 2.43628C25.6481 2.44211 27.9782 2.44211 30.3142 2.43628C30.438 2.43628 30.4793 2.47128 30.4734 2.59383C30.4616 2.83891 30.4616 3.08399 30.4734 3.32324C30.4793 3.46329 30.4321 3.49247 30.2965 3.49247C29.3939 3.48663 28.4855 3.49247 27.583 3.48664C27.4119 3.48664 27.3588 3.52164 27.3588 3.70254C27.3647 4.92795 27.3647 6.15337 27.3647 7.37878Z" fill="#FDFBFA"/>
<path d="M75.1045 18.7867C75.1045 17.392 75.1104 15.9915 75.0986 14.5969C75.0986 14.3927 75.1635 14.346 75.3523 14.3577C75.5705 14.3752 75.7888 14.3752 76.0012 14.3577C76.2017 14.3402 76.2666 14.3985 76.2607 14.6086C76.2548 16.7793 76.2548 18.9559 76.2548 21.1266C76.2548 21.4009 76.2666 21.6751 76.2489 21.9494C76.2371 22.1186 76.2902 22.1536 76.4554 22.1536C77.9006 22.1478 79.3399 22.1536 80.7852 22.1419C81.0093 22.1419 81.0683 22.2061 81.0447 22.4104C81.027 22.5913 81.027 22.778 81.0447 22.9647C81.0624 23.1573 81.0093 23.2156 80.8029 23.2098C79.1453 23.1981 77.4818 23.204 75.8242 23.204C75.6531 23.204 75.4821 23.1923 75.311 23.2098C75.1399 23.2273 75.0986 23.1631 75.0986 22.9997C75.1045 21.7043 75.1045 20.4147 75.1045 19.1193C75.1045 19.0084 75.1045 18.8975 75.1045 18.7867Z" fill="#FAF8F8"/>
<path d="M70.3332 28.7008C70.1504 27.2012 69.177 26.2967 68.0209 26.32C67.0534 26.32 66.4223 26.5476 65.9444 27.1136C65.2897 27.8839 65.154 28.7767 65.3428 29.7337C65.6731 31.4142 67.7023 32.2779 69.1239 31.3325C70.0501 30.7023 70.463 29.8095 70.3332 28.7008ZM69.1652 30.3405C68.8526 30.8716 68.4279 31.245 67.7554 31.1983C67.3189 31.1692 66.9709 30.9649 66.7231 30.6323C66.4518 30.2647 66.2394 29.862 66.1568 29.4011C66.1273 29.2435 66.1627 29.0918 66.1214 28.9401C66.1391 28.2807 66.2866 27.6796 66.7644 27.1778C67.2127 26.7052 67.9737 26.6526 68.5282 27.0261C69.0355 27.3704 69.2714 27.8897 69.3953 28.4441C69.531 29.0918 69.5133 29.7453 69.1652 30.3405Z" fill="#FAF8F8"/>
<path d="M89.5334 31.1633C89.2503 31.1283 89.0674 30.9474 88.9258 30.7198C88.6781 30.3289 88.4303 29.9321 88.1767 29.5411C87.9879 29.2493 87.982 29.2493 88.3006 29.1093C88.9022 28.8409 89.2385 28.269 89.1677 27.6505C89.0969 27.0728 88.6427 26.6293 87.9938 26.5067C87.2328 26.3609 86.4601 26.4425 85.6932 26.4192C85.5399 26.4134 85.4809 26.5067 85.4927 26.6468C85.5045 26.781 85.4986 26.9327 85.705 26.8977C85.9469 26.8627 86 26.9852 85.9941 27.1953C85.9823 27.8664 85.9764 28.5374 85.9764 29.2143C85.9705 29.7103 86.0177 30.2005 85.9705 30.6965C85.9469 30.9357 85.8997 31.1108 85.6284 31.1575C85.4573 31.1867 85.5045 31.3384 85.5045 31.4492C85.5045 31.5659 85.5989 31.5601 85.6814 31.5601C86.1298 31.5601 86.5781 31.5543 87.0264 31.5601C87.1798 31.5601 87.2447 31.5018 87.2505 31.3559C87.2564 31.1575 87.1798 31.0699 86.9379 31.0933C86.7845 31.105 86.7373 31.0583 86.7432 30.9124C86.7491 30.6848 86.7432 30.4514 86.7432 30.2238C86.7432 29.9962 86.755 29.7628 86.7373 29.5353C86.7255 29.3602 86.8258 29.3369 86.9556 29.3427C87.1267 29.3544 87.2093 29.4769 87.2918 29.6053C87.6045 30.1071 87.923 30.6031 88.2357 31.105C88.4362 31.4317 88.6958 31.6418 89.1146 31.5659C89.2326 31.5426 89.3505 31.5601 89.4744 31.5659C89.5747 31.5659 89.6573 31.5484 89.6514 31.4259C89.6632 31.315 89.7104 31.1808 89.5334 31.1633ZM86.9438 28.8934C86.8081 28.8992 86.755 28.8525 86.7609 28.7125C86.7668 28.4674 86.7609 28.2282 86.7609 27.9831C86.7609 27.738 86.755 27.4987 86.7609 27.2537C86.7668 27.0144 86.932 26.851 87.168 26.8569C87.7107 26.8685 88.1295 27.0728 88.2711 27.5337C88.4716 28.2048 88.0882 28.7533 87.3803 28.8584C87.2329 28.8759 87.0854 28.8875 86.9438 28.8934Z" fill="#FAF8F8"/>
<path d="M64.7344 28.3917C64.5457 27.2771 63.7375 26.6119 62.5282 26.4602C61.8145 26.3726 61.0948 26.431 60.381 26.4135C60.21 26.4077 60.1038 26.4485 60.0979 26.6294C60.092 26.8161 60.1982 26.9037 60.3751 26.892C60.5698 26.8803 60.617 26.9795 60.617 27.1487C60.6052 28.2983 60.5993 29.4537 60.5934 30.6032C60.5934 30.86 60.5757 31.0934 60.2395 31.1517C60.092 31.1751 60.1215 31.321 60.1274 31.426C60.1333 31.5544 60.2218 31.5544 60.322 31.5544C60.6642 31.5544 61.0063 31.5544 61.3543 31.5544C61.6257 31.5544 61.8912 31.5602 62.1625 31.5544C63.7965 31.5252 65.0648 30.3406 64.7344 28.3917ZM63.7021 29.9905C63.4367 30.5799 63.0001 30.9709 62.3277 31.0701C62.0917 31.1051 61.8558 31.1051 61.6198 31.1051C61.4605 31.1051 61.3661 31.0409 61.372 30.8542C61.3838 30.2765 61.3779 29.6988 61.3779 29.1269C61.3779 28.6017 61.3838 28.0765 61.372 27.5514C61.3661 27.388 61.4015 27.2304 61.4251 27.0787C61.4546 26.9153 61.608 26.857 61.7496 26.857C62.4338 26.8511 63.0532 27.0262 63.5075 27.5747C63.7316 27.8431 63.8201 28.1757 63.885 28.52C63.9853 29.0277 63.9086 29.5237 63.7021 29.9905Z" fill="#FAF8F8"/>
<path d="M81.6294 28.9693C81.6294 28.3683 81.6235 27.7731 81.6294 27.172C81.6294 26.9736 81.5881 26.8511 81.3522 26.8919C81.1634 26.9269 81.1162 26.8161 81.1162 26.6585C81.1162 26.4951 81.1575 26.4018 81.3581 26.4076C82.3845 26.4193 83.405 26.4134 84.4314 26.4076C84.5907 26.4076 84.6673 26.4543 84.6673 26.6177C84.6732 26.962 84.6791 27.3121 84.6909 27.6564C84.6968 27.7789 84.6261 27.8314 84.514 27.8373C84.396 27.8431 84.3193 27.7964 84.2957 27.668C84.1482 26.9036 84.0598 26.8277 83.2693 26.8277C83.0688 26.8277 82.8682 26.8277 82.6676 26.8744C82.5437 26.9036 82.4612 26.9678 82.4435 27.0903C82.3668 27.5572 82.3963 28.0357 82.3963 28.5083C82.3963 28.6309 82.4907 28.6659 82.5968 28.6659C82.8387 28.6659 83.0747 28.66 83.3165 28.6659C83.464 28.6717 83.523 28.6075 83.5112 28.4675C83.5053 28.4091 83.5171 28.3508 83.5112 28.2924C83.4994 28.129 83.5466 28.0473 83.7353 28.0473C83.9182 28.0532 83.989 28.1173 83.9831 28.2982C83.9713 28.6892 83.9772 29.0802 83.9831 29.4711C83.9831 29.6054 83.9595 29.7046 83.8002 29.7162C83.6291 29.7279 83.5878 29.6345 83.576 29.4886C83.5466 29.1794 83.4463 29.0977 83.1277 29.0918C82.9567 29.0918 82.7856 29.1035 82.6145 29.0918C82.4553 29.086 82.4022 29.1619 82.4022 29.3078C82.4022 29.8446 82.4022 30.3873 82.4022 30.9241C82.4022 31.0467 82.4376 31.1225 82.5791 31.1109C82.9803 31.07 83.3873 31.1225 83.7884 31.07C84.2957 31.0058 84.514 30.7782 84.5376 30.2764C84.5435 30.1364 84.5612 30.008 84.7499 30.0021C84.9092 29.9963 84.9859 30.0488 84.98 30.2181C84.9564 30.609 84.9387 31 84.9269 31.391C84.921 31.5018 84.8679 31.5427 84.7617 31.5427C83.6114 31.5427 82.4612 31.5427 81.3109 31.5427C81.2047 31.5427 81.1634 31.496 81.1457 31.4026C81.128 31.2918 81.1575 31.1634 81.2637 31.1459C81.6589 31.0758 81.6353 30.7957 81.6353 30.504C81.6294 29.9846 81.6353 29.4711 81.6353 28.9518C81.6176 28.9693 81.6235 28.9693 81.6294 28.9693Z" fill="#F6F4F4"/>
<path d="M74.0367 27.2246C74.0367 27.4114 74.0367 27.5923 74.0367 27.779C74.0367 27.9249 74.0721 28.0941 73.848 28.1058C73.6356 28.1174 73.5943 27.9774 73.5766 27.8082C73.5353 27.4464 73.382 27.1429 73.0693 26.9387C72.8216 26.7753 72.5561 26.7111 72.2612 26.787C71.9426 26.8687 71.7244 27.0496 71.6595 27.3705C71.5946 27.6856 71.7421 27.9307 71.978 28.1291C72.2435 28.3508 72.562 28.4792 72.8746 28.6251C73.146 28.7535 73.4115 28.8819 73.6533 29.0511C74.1901 29.4245 74.4143 29.9672 74.2786 30.5683C74.1547 31.1226 73.6946 31.5194 73.0634 31.6361C72.5797 31.7236 72.1137 31.6653 71.6595 31.4961C71.571 31.4611 71.5061 31.4202 71.4294 31.5486C71.3468 31.6886 71.1699 31.6186 71.0342 31.5953C70.928 31.5778 70.9398 31.4786 70.9339 31.3969C70.9221 31.0001 70.9044 30.5974 70.8926 30.2006C70.8867 30.0664 70.8808 29.9322 71.0814 29.9147C71.2702 29.903 71.3232 30.0022 71.3527 30.1598C71.5061 30.9417 72.1314 31.3444 72.8982 31.1635C73.5412 31.0117 73.7536 30.329 73.3112 29.8388C73.146 29.6521 72.9277 29.5354 72.7095 29.4245C72.3614 29.2436 71.9957 29.0861 71.6595 28.8819C70.9339 28.4559 70.7039 27.709 71.0696 26.9971C71.2819 26.5711 71.6595 26.3902 72.1078 26.326C72.5207 26.2676 72.9277 26.3202 73.3112 26.4777C73.4115 26.5186 73.4763 26.5419 73.5471 26.4252C73.6356 26.2852 73.789 26.3493 73.9188 26.3727C74.0603 26.4018 74.0367 26.5244 74.0367 26.6236C74.0367 26.8278 74.0367 27.0262 74.0367 27.2246Z" fill="#F6F4F4"/>
<path d="M78.0007 27.2478C78.0007 27.4462 78.0007 27.6446 78.0007 27.8489C78.0007 27.9714 78.0302 28.0939 77.8237 28.1114C77.6231 28.1289 77.5818 28.0356 77.5582 27.878C77.5347 27.7263 77.4993 27.5746 77.4403 27.4287C77.222 26.9327 76.6734 26.6584 76.1779 26.8043C75.6057 26.9736 75.4346 27.6038 75.8417 28.0356C76.1425 28.3507 76.5554 28.4849 76.9271 28.6775C77.2456 28.8409 77.57 28.9867 77.8355 29.2376C78.2543 29.6286 78.3605 30.1013 78.2248 30.6323C78.0891 31.1691 77.7116 31.4609 77.1925 31.6009C76.6616 31.7468 76.1425 31.6943 75.6352 31.5076C75.5467 31.4726 75.4877 31.4317 75.4052 31.5601C75.3167 31.7002 75.1279 31.636 74.9863 31.6068C74.8625 31.5834 74.886 31.4609 74.886 31.3675C74.8743 30.9824 74.8684 30.5973 74.8507 30.218C74.8448 30.0721 74.8389 29.9496 75.0335 29.9321C75.2105 29.9145 75.2872 29.9846 75.3167 30.1538C75.4405 30.8599 75.9302 31.2508 76.6321 31.2158C77.0274 31.1983 77.3577 30.9766 77.4698 30.6556C77.5818 30.3289 77.4698 30.0021 77.1453 29.7337C76.8445 29.4827 76.4787 29.3427 76.1366 29.1676C75.8712 29.0334 75.5998 28.9109 75.3698 28.7183C74.9214 28.3507 74.7622 27.7963 74.9391 27.2186C75.0925 26.7226 75.5113 26.4017 76.0894 26.3433C76.5141 26.2967 76.9212 26.3375 77.3105 26.5184C77.3754 26.5476 77.4403 26.5768 77.4816 26.4951C77.5877 26.2908 77.7647 26.39 77.9181 26.3959C78.0066 26.4017 78.0066 26.4775 78.0066 26.5476C78.0007 26.7752 78.0007 27.0086 78.0007 27.2478Z" fill="#F6F4F4"/>
<path d="M60.3516 33.3634C60.5875 33.3109 60.8117 33.3868 61.0417 33.3926C62.6993 33.4334 64.3569 33.3809 66.0086 33.3459C67.1884 33.3226 68.3623 33.2525 69.542 33.2234C70.1201 33.2117 70.6923 33.2525 71.1878 33.6085C71.2586 33.661 71.3884 33.7019 71.3353 33.8186C71.2881 33.9294 71.1583 33.9178 71.0522 33.9003C70.9755 33.8886 70.8988 33.8477 70.8221 33.8186C69.3002 33.2 67.6131 33.6377 66.5926 34.9156C66.2505 35.3416 66.3153 35.7792 66.7873 36.0535C67.1412 36.2636 67.5246 36.4094 67.9552 36.3161C68.3092 36.2402 68.551 36.0477 68.6336 35.6975C68.7162 35.3591 68.5274 35.1373 68.2679 34.9564C68.2325 34.9331 68.1853 34.9156 68.1794 34.8339C68.5451 34.9039 68.8755 35.0148 69.0937 35.3241C69.3061 35.6333 69.2353 36.0185 68.9404 36.2519C68.1617 36.8646 66.7755 36.6779 66.2033 35.8843C65.9555 35.54 65.9437 35.1724 66.1207 34.7931C66.2917 34.4254 66.569 34.1512 66.8698 33.8944C66.9111 33.8594 66.976 33.8419 66.9583 33.7777C66.9347 33.696 66.8639 33.7252 66.805 33.7252C65.8552 33.766 64.9114 33.7777 63.9617 33.7544C62.8999 33.7252 61.844 33.6435 60.7999 33.4918C60.6465 33.4743 60.499 33.4393 60.3516 33.3634Z" fill="#F6F4F4"/>
<path d="M89.4858 33.655C87.3563 33.9643 85.2504 34.0401 83.0796 33.9351C83.345 34.1802 83.5869 34.3727 83.7756 34.6178C83.9349 34.8279 84.0706 35.0438 84.1119 35.3064C84.1768 35.709 84.047 36.0358 83.7462 36.2984C83.0501 36.9169 82.1299 37.0045 81.3217 36.5318C80.7967 36.2225 80.779 35.6215 81.2922 35.2947C81.4751 35.178 81.6697 35.0905 81.8939 35.0671C81.888 35.1663 81.8172 35.2013 81.7582 35.2539C81.363 35.5748 81.4043 36.17 81.8585 36.4209C82.5192 36.7827 83.3627 36.4034 83.6872 35.9308C83.8169 35.744 83.7815 35.5398 83.6813 35.3414C83.5161 35.0321 83.2801 34.7929 83.0088 34.5828C81.8644 33.6958 80.6138 33.5208 79.263 34.0635C79.1096 34.1218 78.9091 34.221 78.8206 34.0518C78.7321 33.8767 78.9621 33.8242 79.0801 33.7542C79.3987 33.5616 79.7526 33.4799 80.1242 33.4741C81.6933 33.4566 83.2565 33.5558 84.8256 33.5791C85.5807 33.5908 86.3358 33.5966 87.0908 33.5966C87.7928 33.5966 88.4948 33.6258 89.1967 33.585C89.2793 33.5733 89.3737 33.55 89.4858 33.655Z" fill="#F6F4F4"/>
<path d="M54.1697 29.4362C54.1048 28.8994 53.8747 28.45 53.3143 28.275C52.8011 28.1116 52.341 28.2283 51.9694 28.6484C51.9045 28.5843 51.9281 28.5259 51.9281 28.4676C51.9281 28.0707 51.9281 27.6681 51.9281 27.2713C51.9281 26.9037 51.9281 26.9095 51.5447 26.9037C51.3854 26.8978 51.3618 26.962 51.3677 27.0963C51.3736 27.5106 51.3677 27.9249 51.3677 28.3392C51.3677 29.197 51.3736 30.0547 51.3618 30.9067C51.3559 31.2218 51.3382 31.2101 51.639 31.2218C51.8042 31.2276 51.8455 31.1693 51.8455 31.0234C51.8455 30.9534 51.8278 30.8659 51.8809 30.79C52.3292 31.4552 53.2435 31.3677 53.6624 30.9884C54.1343 30.5624 54.2405 30.0197 54.1697 29.4362ZM53.2907 30.6091C53.0312 30.8484 52.7362 30.8892 52.4118 30.755C52.1522 30.65 51.9576 30.3524 51.9517 30.0548C51.9517 29.9614 51.9517 29.8622 51.9517 29.7688C51.9517 29.5354 51.9222 29.302 52.052 29.0919C52.3646 28.5784 53.0961 28.4851 53.4441 29.0686C53.6978 29.4887 53.6977 30.2415 53.2907 30.6091Z" fill="#FAF8F8"/>
<path d="M79.6645 31.5544C79.4403 31.5544 79.2162 31.5544 78.992 31.5544C78.8917 31.5544 78.815 31.5427 78.8032 31.4201C78.7914 31.3151 78.7679 31.1926 78.9035 31.1634C79.2516 31.0759 79.287 30.8249 79.287 30.5332C79.287 29.3953 79.287 28.2574 79.2988 27.1195C79.2988 26.9386 79.2398 26.8861 79.0628 26.892C78.8504 26.892 78.7561 26.7752 78.7856 26.5827C78.8032 26.4776 78.8563 26.4135 78.9802 26.4135C79.4403 26.4135 79.9063 26.4135 80.3665 26.4135C80.4667 26.4135 80.5139 26.4485 80.5257 26.5535C80.5375 26.6702 80.5611 26.7986 80.4254 26.8336C80.0538 26.9153 80.042 27.1837 80.042 27.4755C80.0479 28.59 80.0479 29.7046 80.042 30.8191C80.042 31.0233 80.0833 31.1284 80.3193 31.0817C80.4844 31.0467 80.5434 31.14 80.5434 31.2976C80.5375 31.4435 80.5375 31.566 80.337 31.5544C80.1128 31.5485 79.8886 31.5544 79.6645 31.5544Z" fill="#FAF8F8"/>
<path d="M54.417 28.2866C55.0069 28.2632 55.0069 28.2632 55.2015 28.7767C55.4139 29.3486 55.6263 29.9263 55.8386 30.4981C55.9035 30.4923 55.8917 30.4281 55.9094 30.3814C56.1218 29.7454 56.3459 29.1152 56.5524 28.4733C56.6055 28.3041 56.6881 28.2516 56.8532 28.2749C56.9653 28.2866 57.0774 28.2749 57.219 28.2749C57.0892 28.6075 56.9712 28.9226 56.8473 29.2377C56.5406 30.0021 56.2869 30.7899 55.9035 31.5252C55.6794 31.957 55.3785 32.3129 54.9066 32.4938C54.8358 32.523 54.7001 32.6164 54.6942 32.4413C54.6883 32.3071 54.4347 32.1495 54.7237 32.027C54.9243 31.9453 55.0954 31.8111 55.2369 31.6477C55.5024 31.3559 55.5791 31.07 55.3962 30.6732C55.0541 29.9438 54.7827 29.1852 54.476 28.4441C54.4524 28.3974 54.4406 28.3508 54.417 28.2866Z" fill="#F6F4F4"/>
<path d="M73.3702 33.7076C73.6711 33.8944 74.0073 33.9877 74.3435 34.0928C74.3907 34.1044 74.4556 34.1161 74.4438 34.1861C74.4379 34.2212 74.3907 34.2328 74.3494 34.227C73.5649 34.1628 72.7862 34.0753 72.1609 33.5209C71.8896 33.2817 71.748 32.9841 71.7126 32.6339C71.7067 32.5698 71.6831 32.4939 71.7539 32.4531C71.8188 32.418 71.8601 32.4822 71.9073 32.5114C72.3379 32.7682 72.8216 32.809 73.3053 32.8498C73.7536 32.8849 74.202 32.9315 74.5736 33.2175C74.7624 33.3634 74.8803 33.5559 74.9334 33.7893C74.9747 33.9527 74.9157 34.0111 74.7564 33.9994C74.432 33.9761 74.1312 33.871 73.8185 33.7893C73.6829 33.7543 73.5472 33.7135 73.4115 33.6785C73.3879 33.6434 73.3584 33.6435 73.323 33.661C73.3348 33.6726 73.3525 33.6901 73.3702 33.7076Z" fill="#F6F4F4"/>
<path d="M76.7329 33.6551C76.3377 33.7718 75.9542 33.906 75.5472 33.9702C75.4351 33.9877 75.2877 34.0519 75.211 33.9468C75.1402 33.8535 75.2051 33.7193 75.2523 33.6084C75.3408 33.3866 75.5059 33.2291 75.7124 33.1124C76.0604 32.9198 76.4439 32.8731 76.8332 32.844C77.3464 32.8031 77.8596 32.7564 78.302 32.453C78.3315 32.4297 78.361 32.4063 78.3964 32.4355C78.4495 32.4763 78.4377 32.5289 78.4318 32.5755C78.3905 33.0482 78.1722 33.41 77.777 33.6784C77.2638 34.0344 76.668 34.1336 76.0604 34.1919C75.9425 34.2036 75.7478 34.3086 75.7065 34.1627C75.677 34.0577 75.9012 34.0635 76.0132 34.0169C76.2669 33.9177 76.5382 33.8476 76.7683 33.6959C76.786 33.6784 76.8096 33.6609 76.8273 33.6434C76.8037 33.6317 76.7683 33.6376 76.7329 33.6551Z" fill="#F6F4F4"/>
<path d="M1.13281 7.31363C1.1859 7.27385 1.24489 7.28521 1.30388 7.28521C1.97635 7.29658 2.65473 7.26249 3.3272 7.30226C2.58984 7.30794 1.86428 7.31363 1.13281 7.31363Z" fill="#F6F4F4"/>
<path d="M0.0122493 2.47119C0.0122493 2.47706 0.0122493 2.48879 0.0122493 2.49466C0.00612481 2.48879 0.00612452 2.47706 0 2.47119C0 2.47119 0.00612481 2.47119 0.0122493 2.47119Z" fill="#F6F4F4"/>
<path d="M3.39746 7.33203C3.41008 7.34412 3.41639 7.35016 3.4227 7.3683C3.41639 7.35621 3.40377 7.34412 3.39746 7.33203Z" fill="#F6F4F4"/>
<path d="M122.532 18.2266C122.532 23.4726 122.532 28.7243 122.538 33.9703C122.538 34.1745 122.467 34.2679 122.29 34.3437C121.181 34.8164 120.049 35.2249 118.898 35.5867C118.792 35.6217 118.692 35.6333 118.574 35.5925C115.129 34.5363 111.949 32.9666 109.106 30.755C107.561 29.553 106.328 28.1233 105.626 26.2852C105.266 25.334 105.083 24.3537 105.083 23.3384C105.083 16.6978 105.083 10.0631 105.077 3.42248C105.077 3.20074 105.118 3.10737 105.36 3.07236C106.611 2.90313 107.861 2.74558 109.118 2.6172C110.864 2.44215 112.61 2.31377 114.368 2.23207C116.374 2.14454 118.385 2.09203 120.391 2.15038C121.057 2.16788 121.718 2.19123 122.385 2.20874C122.502 2.20874 122.55 2.23791 122.538 2.36045C122.532 2.41297 122.538 2.46549 122.538 2.51801C122.532 7.75811 122.532 12.9924 122.532 18.2266ZM119.718 6.60272C119.718 7.12789 120.013 7.4605 120.473 7.45467C120.922 7.44883 121.24 7.09871 121.246 6.59688C121.252 6.11255 120.945 5.7741 120.509 5.76826C120.037 5.76826 119.724 6.10088 119.718 6.60272ZM114.545 6.58521C114.539 6.11839 114.25 5.79161 113.837 5.77411C113.377 5.7566 113.076 6.03669 113.017 6.52685C112.964 7.00535 113.218 7.37297 113.654 7.43716C114.156 7.51886 114.551 7.13957 114.545 6.58521ZM116.556 13.6984C116.663 13.9085 116.845 13.9669 117.022 13.8502C117.058 13.8268 117.105 13.8035 117.075 13.751C117.058 13.7101 117.04 13.6576 116.981 13.6868C116.781 13.7801 116.804 13.6226 116.804 13.5234C116.798 13.2433 116.816 12.9632 116.81 12.6831C116.804 12.3563 116.621 12.2104 116.285 12.2513C116.132 12.2688 116.008 12.3505 115.878 12.4263C115.819 12.4614 115.736 12.4847 115.795 12.5897C115.86 12.7006 115.913 12.6306 115.972 12.5956C116.061 12.5431 116.149 12.4847 116.256 12.473C116.415 12.4497 116.515 12.5022 116.539 12.6714C116.562 12.8231 116.521 12.899 116.35 12.9107C116.161 12.9223 115.984 12.9749 115.825 13.0799C115.636 13.2083 115.565 13.4359 115.648 13.6459C115.725 13.8327 115.908 13.926 116.138 13.9143C116.32 13.8968 116.433 13.7918 116.556 13.6984ZM109.897 6.03669C109.891 5.90248 109.908 5.80911 109.755 5.81495C109.607 5.82078 109.631 5.90248 109.631 5.99001C109.625 6.41015 109.625 6.83029 109.613 7.25044C109.613 7.34964 109.637 7.39632 109.749 7.39632C109.861 7.39632 109.891 7.34964 109.885 7.25044C109.879 6.97034 109.879 6.69025 109.885 6.41015C109.885 6.22342 110.162 5.99585 110.363 6.00168C110.545 6.00752 110.628 6.11255 110.628 6.3868C110.628 6.6844 110.628 6.97617 110.622 7.27377C110.622 7.37297 110.657 7.40799 110.752 7.40215C110.829 7.39632 110.905 7.41383 110.899 7.29712C110.888 6.91199 110.947 6.52686 110.893 6.14756C110.864 5.92582 110.711 5.80328 110.486 5.77994C110.262 5.7566 110.091 5.8733 109.897 6.03669ZM120.821 10.3723C120.969 10.5882 121.152 10.6349 121.317 10.5124C121.34 10.4949 121.388 10.4774 121.364 10.4307C121.346 10.4015 121.34 10.3431 121.299 10.3548C120.969 10.454 121.093 10.1973 121.087 10.0747C121.075 9.81213 121.099 9.54371 121.087 9.28112C121.075 9.04771 120.945 8.93684 120.715 8.91933C120.509 8.90183 120.338 8.98936 120.172 9.09439C120.113 9.13524 120.007 9.15274 120.09 9.26944C120.161 9.37448 120.214 9.29862 120.273 9.26361C120.373 9.19942 120.479 9.14107 120.603 9.14107C120.774 9.13523 120.827 9.25194 120.851 9.39782C120.874 9.54954 120.786 9.56121 120.668 9.57288C120.485 9.59622 120.302 9.63707 120.143 9.7421C119.936 9.87632 119.866 10.1039 119.954 10.3198C120.037 10.5182 120.226 10.6116 120.467 10.5766C120.615 10.559 120.721 10.4715 120.821 10.3723ZM115.548 9.73044C115.683 9.73044 115.819 9.73044 115.949 9.73044C115.996 9.73044 116.049 9.74794 116.073 9.67208C116.149 9.39199 115.872 8.97768 115.577 8.931C115.052 8.84347 114.663 9.32197 114.745 9.95802C114.781 10.2206 114.899 10.4365 115.164 10.5415C115.43 10.6466 115.677 10.6057 115.896 10.4307C115.949 10.3898 116.061 10.3607 115.99 10.2498C115.913 10.1272 115.849 10.2148 115.778 10.2615C115.43 10.5007 115.093 10.3548 115.017 9.94051C114.993 9.80046 115.005 9.71293 115.188 9.73627C115.306 9.74211 115.43 9.73044 115.548 9.73044ZM111.643 6.03086C111.643 5.89081 111.625 5.80328 111.472 5.82079C111.312 5.83829 111.383 5.955 111.383 6.01919C111.371 6.42182 111.371 6.83029 111.365 7.23293C111.365 7.33213 111.371 7.40215 111.507 7.40215C111.643 7.40215 111.643 7.3263 111.643 7.23293C111.643 6.98785 111.66 6.74276 111.637 6.50352C111.613 6.26427 111.755 6.14756 111.926 6.06003C112.174 5.92582 112.374 6.04253 112.38 6.32262C112.386 6.63773 112.386 6.95867 112.38 7.27377C112.38 7.36714 112.404 7.40799 112.504 7.40215C112.592 7.39632 112.663 7.40216 112.657 7.27961C112.651 6.91199 112.663 6.54436 112.651 6.1709C112.645 5.93165 112.474 5.79161 112.227 5.77994C111.997 5.76243 111.837 5.87914 111.643 6.03086ZM117.199 7.23293C117.323 7.443 117.5 7.48968 117.665 7.37881C117.701 7.35547 117.748 7.33213 117.718 7.27961C117.701 7.23877 117.683 7.19792 117.624 7.22126C117.429 7.29712 117.447 7.15123 117.447 7.0462C117.447 6.7486 117.459 6.45683 117.447 6.15923C117.441 5.91415 117.294 5.77994 117.052 5.77411C116.84 5.76827 116.668 5.8733 116.497 5.97834C116.444 6.01335 116.391 6.03669 116.444 6.11255C116.492 6.18258 116.527 6.20008 116.604 6.14756C116.704 6.07754 116.816 6.00752 116.946 6.00168C117.105 5.99001 117.176 6.07753 117.193 6.22342C117.217 6.37513 117.152 6.43349 117.005 6.44516C116.786 6.46267 116.58 6.52102 116.415 6.67857C116.261 6.82445 116.22 7.05203 116.326 7.22709C116.438 7.41382 116.604 7.47801 116.822 7.44883C116.969 7.41966 117.075 7.33213 117.199 7.23293ZM116.692 9.18192C116.674 9.07105 116.716 8.9485 116.545 8.96018C116.374 8.97185 116.433 9.08855 116.427 9.16441C116.415 9.57289 116.415 9.97552 116.409 10.384C116.409 10.4832 116.415 10.5474 116.545 10.5532C116.686 10.5532 116.68 10.4774 116.68 10.384C116.68 10.1039 116.674 9.8238 116.68 9.5437C116.68 9.35114 116.952 9.14107 117.17 9.14691C117.353 9.15274 117.429 9.25194 117.429 9.50869C117.429 9.81213 117.435 10.1156 117.429 10.419C117.429 10.5357 117.477 10.5532 117.577 10.5532C117.665 10.5532 117.713 10.5299 117.713 10.4307C117.707 10.063 117.718 9.68959 117.707 9.32197C117.701 9.06522 117.524 8.931 117.264 8.91933C117.04 8.90766 116.875 9.0302 116.692 9.18192ZM115.406 7.07537C115.265 6.67274 115.129 6.28761 115.005 5.90248C114.964 5.76827 114.899 5.78577 114.793 5.81495C114.663 5.84996 114.704 5.91999 114.734 6.00168C114.893 6.42182 115.052 6.84196 115.206 7.2621C115.241 7.34963 115.282 7.40799 115.394 7.40215C115.506 7.40215 115.548 7.35546 115.589 7.2621C115.754 6.84779 115.931 6.43349 116.096 6.01335C116.126 5.94332 116.214 5.86163 116.049 5.80912C115.925 5.76827 115.878 5.79744 115.843 5.90831C115.695 6.29344 115.554 6.67274 115.406 7.07537ZM118.049 6.56771C118.055 6.72526 118.043 6.87697 118.055 7.03452C118.084 7.39631 118.361 7.53637 118.686 7.36131C118.739 7.33213 118.816 7.30879 118.78 7.21543C118.739 7.11039 118.68 7.15123 118.603 7.17457C118.397 7.2446 118.338 7.20375 118.332 6.97618C118.326 6.71942 118.338 6.45683 118.326 6.20008C118.32 6.04253 118.367 5.98417 118.527 6.00751C118.562 6.01335 118.603 6.00751 118.639 6.00751C118.704 6.01335 118.751 5.99584 118.751 5.91415C118.751 5.82662 118.704 5.82662 118.639 5.82079C118.332 5.79161 118.332 5.79161 118.332 5.4765C118.332 5.44149 118.326 5.40064 118.332 5.36563C118.344 5.26643 118.308 5.21974 118.196 5.21974C118.084 5.21974 118.049 5.25476 118.061 5.35979C118.067 5.44149 118.055 5.52318 118.061 5.60488C118.072 5.74492 118.067 5.86164 117.872 5.82079C117.807 5.80912 117.76 5.82662 117.76 5.91415C117.766 5.98417 117.795 6.01335 117.854 6.00168C118.084 5.96667 118.067 6.10088 118.049 6.25259C118.037 6.36347 118.049 6.46267 118.049 6.56771ZM111.743 10.5707C112.038 10.5707 112.238 10.4365 112.291 10.2031C112.35 9.95218 112.244 9.78879 111.949 9.66625C111.879 9.63707 111.808 9.61373 111.743 9.57872C111.637 9.5262 111.554 9.44451 111.584 9.31613C111.613 9.17608 111.731 9.11773 111.867 9.11773C111.955 9.11773 112.038 9.15274 112.12 9.18775C112.209 9.2286 112.238 9.14691 112.268 9.09439C112.309 9.02437 112.238 9.00686 112.197 8.98935C112.061 8.92516 111.914 8.90183 111.761 8.91933C111.501 8.95434 111.336 9.09439 111.306 9.3278C111.277 9.5262 111.395 9.7071 111.619 9.81213C111.713 9.85298 111.814 9.88799 111.902 9.93467C111.997 9.98135 112.044 10.0689 112.02 10.1739C111.997 10.279 111.926 10.3373 111.825 10.3607C111.713 10.384 111.601 10.3723 111.501 10.314C111.413 10.2615 111.354 10.2673 111.312 10.3665C111.259 10.489 111.371 10.4832 111.424 10.5065C111.525 10.5532 111.637 10.5824 111.743 10.5707ZM120.721 13.8968C121.004 13.8968 121.211 13.7626 121.264 13.5292C121.323 13.2783 121.217 13.1091 120.927 12.9865C120.868 12.9574 120.804 12.9399 120.739 12.9107C120.615 12.8523 120.515 12.7706 120.556 12.6247C120.603 12.4789 120.727 12.4263 120.874 12.4439C120.939 12.4497 121.01 12.4672 121.063 12.5022C121.163 12.5606 121.199 12.4964 121.234 12.4322C121.287 12.3446 121.199 12.333 121.152 12.3155C121.004 12.2513 120.857 12.2279 120.697 12.2513C120.461 12.2921 120.308 12.4263 120.279 12.6481C120.249 12.864 120.355 13.0157 120.544 13.1091C120.644 13.1558 120.751 13.1908 120.851 13.2433C120.951 13.2958 121.016 13.3717 120.992 13.4942C120.969 13.6226 120.88 13.6751 120.756 13.6926C120.638 13.7101 120.532 13.6751 120.438 13.6226C120.349 13.5701 120.32 13.6343 120.284 13.6868C120.231 13.7685 120.296 13.786 120.349 13.8152C120.467 13.8677 120.591 13.9027 120.721 13.8968ZM118.249 9.73044C118.249 9.85882 118.249 9.98135 118.249 10.1097C118.255 10.5299 118.538 10.6933 118.904 10.489C118.963 10.4599 119.028 10.4423 118.981 10.349C118.934 10.2614 118.892 10.2848 118.822 10.314C118.603 10.3957 118.533 10.3548 118.527 10.1214C118.521 9.85881 118.538 9.59039 118.527 9.32197C118.521 9.18192 118.568 9.13523 118.704 9.15274C118.745 9.15858 118.792 9.15274 118.839 9.15274C118.91 9.15274 118.975 9.15274 118.969 9.05354C118.963 8.96018 118.904 8.97185 118.845 8.97185C118.533 8.94267 118.533 8.94267 118.533 8.62757C118.533 8.58088 118.527 8.54003 118.533 8.49335C118.538 8.39998 118.509 8.35915 118.409 8.36498C118.308 8.36498 118.255 8.38832 118.261 8.49919C118.267 8.57505 118.261 8.64507 118.261 8.72093C118.267 8.86097 118.291 9.01269 118.061 8.97768C117.99 8.96601 117.978 9.01853 117.978 9.07688C117.978 9.1294 117.996 9.17024 118.055 9.15857C118.285 9.11773 118.261 9.26361 118.255 9.4095C118.243 9.5087 118.249 9.61957 118.249 9.73044ZM118.597 13.0682C118.597 13.2024 118.597 13.3367 118.597 13.465C118.609 13.856 118.886 14.0077 119.24 13.8152C119.299 13.786 119.364 13.7743 119.329 13.6751C119.282 13.5701 119.229 13.6109 119.158 13.6401C118.957 13.7218 118.886 13.6751 118.881 13.4534C118.875 13.1791 118.886 12.9048 118.875 12.6364C118.869 12.5022 118.922 12.4672 119.04 12.4847C119.081 12.4905 119.128 12.4847 119.176 12.4847C119.246 12.4847 119.311 12.4847 119.305 12.3855C119.299 12.298 119.24 12.3038 119.181 12.298C118.881 12.2746 118.881 12.2746 118.881 11.9712C118.881 11.9128 118.875 11.8545 118.881 11.7961C118.886 11.6969 118.827 11.6911 118.751 11.6911C118.674 11.6911 118.597 11.6853 118.609 11.802C118.615 11.8895 118.609 11.977 118.609 12.0704C118.615 12.2104 118.627 12.3447 118.415 12.3038C118.35 12.2921 118.32 12.3271 118.32 12.3913C118.32 12.4555 118.344 12.4964 118.409 12.4847C118.627 12.4439 118.609 12.5781 118.603 12.7181C118.597 12.829 118.597 12.9457 118.597 13.0682ZM112.545 9.79463C112.545 9.8238 112.545 9.88799 112.557 9.95217C112.616 10.2264 112.74 10.454 113.023 10.5532C113.277 10.6407 113.507 10.5882 113.707 10.4015C113.766 10.349 113.796 10.314 113.731 10.2439C113.672 10.1798 113.631 10.1856 113.572 10.2439C113.283 10.524 112.929 10.314 112.852 9.98135C112.816 9.81213 112.816 9.6429 112.87 9.47952C112.988 9.13523 113.265 9.04187 113.56 9.25778C113.648 9.32197 113.69 9.28112 113.743 9.23443C113.813 9.17025 113.754 9.13524 113.713 9.09439C113.583 8.96602 113.436 8.90182 113.253 8.91349C112.834 8.93683 112.545 9.28696 112.545 9.79463ZM117.6 12.5372C117.606 12.3797 117.63 12.2746 117.453 12.2863C117.294 12.298 117.323 12.3855 117.323 12.4789C117.323 12.8757 117.323 13.2783 117.323 13.6751C117.323 13.7626 117.288 13.8677 117.453 13.8677C117.63 13.8735 117.595 13.7626 117.595 13.6634C117.595 13.465 117.595 13.2666 117.595 13.0682C117.595 12.7298 117.701 12.5897 118.031 12.5197C118.143 12.4964 118.143 12.403 118.149 12.3388C118.155 12.2396 118.061 12.2571 117.996 12.263C117.836 12.263 117.742 12.3797 117.6 12.5372ZM119.063 6.61439H119.058C119.058 6.81863 119.058 7.02286 119.058 7.23293C119.058 7.3263 119.046 7.40799 119.187 7.40215C119.305 7.40215 119.341 7.36131 119.341 7.25044C119.341 6.81862 119.347 6.38097 119.352 5.94916C119.352 5.83245 119.299 5.82079 119.205 5.82079C119.105 5.82079 119.058 5.84413 119.063 5.955C119.069 6.17674 119.063 6.39848 119.063 6.61439ZM119.541 9.76545H119.547C119.547 9.54371 119.547 9.32197 119.547 9.10023C119.547 9.01853 119.541 8.96018 119.429 8.96602C119.335 8.97185 119.264 8.96601 119.264 9.10023C119.27 9.54371 119.258 9.98719 119.252 10.4248C119.252 10.5474 119.317 10.5532 119.406 10.5532C119.494 10.5532 119.541 10.5299 119.541 10.4307C119.535 10.2031 119.541 9.98136 119.541 9.76545ZM119.889 13.0624C119.895 13.0624 119.901 13.0624 119.901 13.0624C119.901 12.8465 119.895 12.6364 119.901 12.4205C119.907 12.3038 119.848 12.2921 119.754 12.2863C119.647 12.2863 119.612 12.3155 119.612 12.4263C119.612 12.8523 119.606 13.2841 119.6 13.7101C119.6 13.821 119.63 13.8618 119.748 13.8677C119.877 13.8677 119.895 13.8093 119.889 13.7043C119.883 13.4884 119.889 13.2783 119.889 13.0624ZM109.141 6.60855H109.147C109.147 6.38681 109.141 6.16507 109.147 5.94332C109.153 5.82078 109.082 5.82079 108.994 5.82079C108.9 5.81495 108.864 5.84412 108.864 5.94332C108.864 6.38681 108.864 6.83029 108.858 7.27377C108.858 7.39631 108.917 7.39632 109.012 7.40215C109.106 7.40215 109.141 7.37297 109.141 7.27377C109.136 7.05203 109.141 6.83029 109.141 6.60855ZM114.073 9.75962C114.073 9.97552 114.073 10.1856 114.073 10.4015C114.073 10.489 114.073 10.5532 114.197 10.5532C114.309 10.5532 114.356 10.5299 114.35 10.4073C114.344 9.97552 114.344 9.53787 114.35 9.10606C114.35 9.00102 114.321 8.96602 114.209 8.96602C114.108 8.96602 114.061 8.98352 114.067 9.10023C114.085 9.31613 114.073 9.53788 114.073 9.75962ZM119.205 5.1789C119.081 5.15556 119.063 5.21975 119.058 5.33062C119.052 5.44149 119.087 5.48234 119.205 5.48234C119.323 5.48234 119.352 5.44149 119.352 5.33062C119.347 5.22558 119.329 5.15556 119.205 5.1789ZM119.394 8.3358C119.276 8.30079 119.258 8.37081 119.252 8.47584C119.246 8.59255 119.293 8.62173 119.406 8.62173C119.524 8.62173 119.559 8.59255 119.553 8.47584C119.547 8.37081 119.529 8.30663 119.394 8.3358ZM114.215 8.61589C114.327 8.6334 114.38 8.60423 114.374 8.48168C114.374 8.37665 114.35 8.32413 114.226 8.32413C114.114 8.32413 114.067 8.35331 114.073 8.47001C114.073 8.57505 114.085 8.64507 114.215 8.61589ZM119.895 11.8078C119.913 11.7086 119.901 11.6327 119.759 11.6386C119.659 11.6444 119.588 11.6503 119.594 11.7786C119.6 11.8837 119.594 11.9654 119.742 11.9537C119.836 11.942 119.925 11.9537 119.895 11.8078ZM109.147 5.33646C109.165 5.23142 109.136 5.17307 109.012 5.17307C108.888 5.17307 108.864 5.21975 108.864 5.33062C108.864 5.42398 108.876 5.48233 108.994 5.4765C109.1 5.4765 109.177 5.47067 109.147 5.33646Z" fill="#E21119"/>
<path d="M123.753 9.3628C123.753 7.08703 123.753 4.81126 123.747 2.5355C123.747 2.33126 123.788 2.28457 124.007 2.30208C124.945 2.38377 125.882 2.43046 126.82 2.50632C127.923 2.59385 129.021 2.70472 130.112 2.84477C130.802 2.9323 131.486 3.03733 132.177 3.11903C132.336 3.13653 132.371 3.20072 132.371 3.34077C132.365 4.22774 132.371 5.1147 132.371 6.00167C132.371 9.39198 132.371 12.7881 132.377 16.1784C132.377 16.3885 132.33 16.4527 132.112 16.4527C129.422 16.4469 126.732 16.4469 124.042 16.4469C123.759 16.4469 123.759 16.4469 123.759 16.1551C123.753 13.8852 123.753 11.6211 123.753 9.3628Z" fill="#989593"/>
<path d="M123.783 33.6318C123.729 33.5501 123.747 33.4743 123.747 33.4042C123.747 30.6558 123.747 27.9074 123.741 25.159C123.741 24.9372 123.806 24.8964 124.018 24.8964C126.661 24.9022 129.31 24.9022 131.952 24.8964C132.165 24.8964 132.206 24.9372 132.159 25.1531C131.829 26.6703 131.097 27.9832 130.083 29.1445C128.95 30.4399 127.546 31.4027 126.113 32.3247C125.464 32.7448 124.785 33.1241 124.101 33.4801C123.995 33.5268 123.889 33.5793 123.783 33.6318Z" fill="#989593"/>
<path d="M128.047 19.8955C129.416 19.8955 130.778 19.9013 132.147 19.8896C132.347 19.8896 132.383 19.9597 132.377 20.1347C132.365 20.2864 132.395 20.4148 132.159 20.4148C129.427 20.409 126.69 20.409 123.959 20.4148C123.717 20.4148 123.753 20.2864 123.741 20.1347C123.729 19.9538 123.782 19.8955 123.977 19.8955C125.328 19.8955 126.684 19.8955 128.047 19.8955Z" fill="#989593"/>
<path d="M128.047 21.8912C129.416 21.8912 130.778 21.897 132.147 21.8854C132.347 21.8854 132.383 21.9554 132.377 22.1305C132.365 22.2822 132.395 22.4105 132.159 22.4105C129.427 22.4047 126.69 22.4047 123.959 22.4105C123.717 22.4105 123.753 22.2822 123.741 22.1305C123.729 21.9496 123.782 21.8912 123.977 21.8912C125.328 21.8912 126.684 21.8912 128.047 21.8912Z" fill="#989593"/>
<path d="M128.053 23.8869C129.398 23.8869 130.743 23.8869 132.088 23.8927C132.171 23.8927 132.348 23.8227 132.301 24.0036C132.265 24.1436 132.419 24.4121 132.082 24.4121C129.363 24.4121 126.638 24.4062 123.918 24.4121C123.694 24.4121 123.735 24.2779 123.73 24.1495C123.724 24.0153 123.706 23.8927 123.924 23.8927C125.299 23.8986 126.673 23.8986 128.048 23.8986C128.053 23.8927 128.053 23.8869 128.053 23.8869Z" fill="#989593"/>
<path d="M128.065 17.4038C126.702 17.4038 125.346 17.3979 123.983 17.4096C123.765 17.4096 123.747 17.3279 123.747 17.1528C123.747 16.9661 123.782 16.8961 123.989 16.8961C126.702 16.9019 129.416 16.9019 132.129 16.9019C132.212 16.9019 132.336 16.8494 132.359 16.9661C132.383 17.0945 132.383 17.2345 132.354 17.3571C132.336 17.4329 132.218 17.3921 132.147 17.3921C130.784 17.4038 129.422 17.4038 128.065 17.4038Z" fill="#989593"/>
<path d="M128.047 17.8939C129.415 17.8939 130.784 17.8997 132.147 17.8881C132.353 17.8881 132.377 17.9639 132.371 18.1331C132.365 18.2965 132.365 18.4016 132.141 18.4016C129.421 18.3957 126.702 18.3957 123.983 18.4016C123.764 18.4016 123.752 18.314 123.747 18.139C123.741 17.9523 123.788 17.8881 123.988 17.8881C125.339 17.8939 126.696 17.8939 128.047 17.8939Z" fill="#989593"/>
<path d="M128.065 19.3993C126.708 19.3993 125.346 19.3935 123.989 19.4052C123.782 19.4052 123.747 19.341 123.747 19.1542C123.747 18.9675 123.782 18.9033 123.995 18.9033C126.714 18.9092 129.434 18.9092 132.153 18.9033C132.383 18.9033 132.377 19.0025 132.383 19.1659C132.389 19.341 132.348 19.4052 132.153 19.4052C130.784 19.3935 129.428 19.3993 128.065 19.3993Z" fill="#989593"/>
<path d="M128.065 20.905C129.421 20.905 130.784 20.9108 132.141 20.8992C132.365 20.8992 132.371 20.9925 132.377 21.1618C132.383 21.331 132.347 21.4068 132.147 21.401C129.427 21.3952 126.708 21.3952 123.988 21.401C123.788 21.401 123.735 21.3485 123.741 21.1559C123.747 20.975 123.77 20.8992 123.983 20.8992C125.345 20.905 126.702 20.905 128.065 20.905Z" fill="#989593"/>
<path d="M128.047 23.3966C126.697 23.3966 125.34 23.3908 123.989 23.4024C123.783 23.4024 123.741 23.3382 123.741 23.1515C123.747 22.9765 123.765 22.8948 123.983 22.8948C126.697 22.9006 129.41 22.9006 132.118 22.9006C132.188 22.9006 132.295 22.8539 132.336 22.959C132.377 23.0873 132.395 23.2274 132.354 23.3499C132.324 23.4316 132.218 23.3908 132.153 23.3908C130.784 23.3966 129.416 23.3966 128.047 23.3966Z" fill="#989593"/>
<path d="M73.3715 33.7086C73.3535 33.6908 73.3354 33.673 73.3174 33.6494C73.3535 33.6316 73.3836 33.6316 73.4076 33.6671C73.3956 33.6849 73.3836 33.6967 73.3715 33.7086Z" fill="#020202"/>
<path d="M76.7334 33.6554C76.7695 33.6376 76.7996 33.6258 76.8357 33.6554C76.8176 33.6731 76.7936 33.6909 76.7755 33.7087C76.7635 33.6909 76.7515 33.6731 76.7334 33.6554Z" fill="#020202"/>
<path d="M119.718 6.60254C119.718 6.1007 120.03 5.77393 120.502 5.77393C120.939 5.77393 121.246 6.11821 121.24 6.60254C121.234 7.10437 120.921 7.46033 120.467 7.46033C120.013 7.46033 119.718 7.12771 119.718 6.60254ZM119.995 6.59086C119.989 6.96432 120.184 7.22692 120.455 7.23275C120.726 7.24442 120.921 7.01684 120.951 6.66089C120.957 6.62587 120.957 6.58503 120.957 6.55002C120.939 6.21157 120.756 5.98399 120.485 5.97816C120.231 5.97232 120.036 6.19407 120.001 6.52084C120.001 6.55002 120.001 6.57919 119.995 6.59086Z" fill="#FAF8F8"/>
<path d="M114.545 6.5851C114.55 7.13946 114.155 7.51875 113.654 7.44289C113.217 7.37287 112.964 7.01107 113.017 6.53258C113.07 6.04241 113.377 5.76232 113.837 5.77983C114.25 5.7915 114.545 6.11828 114.545 6.5851ZM113.306 6.62594C113.306 6.65512 113.306 6.6843 113.306 6.71348C113.323 6.99941 113.495 7.20948 113.725 7.23282C113.961 7.25616 114.161 7.0811 114.232 6.79517C114.244 6.73682 114.25 6.67847 114.25 6.62011C114.256 6.24082 114.073 5.98406 113.789 5.97823C113.506 5.97239 113.306 6.23498 113.306 6.62594Z" fill="#FDFBFA"/>
<path d="M116.556 13.6984C116.432 13.7918 116.32 13.8968 116.149 13.9085C115.919 13.926 115.736 13.8326 115.659 13.6401C115.577 13.43 115.641 13.2024 115.836 13.074C115.995 12.969 116.172 12.9107 116.361 12.9048C116.532 12.8931 116.573 12.8173 116.55 12.6656C116.52 12.4963 116.426 12.4438 116.267 12.4672C116.161 12.4847 116.072 12.5372 115.984 12.5897C115.925 12.6247 115.866 12.6889 115.807 12.5839C115.748 12.4788 115.824 12.4555 115.889 12.4205C116.013 12.3446 116.137 12.2688 116.296 12.2454C116.632 12.2046 116.815 12.3446 116.821 12.6772C116.827 12.9573 116.809 13.2374 116.815 13.5175C116.815 13.6167 116.792 13.7743 116.992 13.6809C117.051 13.6517 117.069 13.7042 117.087 13.7451C117.11 13.7976 117.069 13.821 117.034 13.8443C116.845 13.9668 116.662 13.9085 116.556 13.6984ZM116.544 13.2899C116.603 13.0624 116.509 13.0157 116.302 13.0974C116.225 13.1266 116.143 13.1441 116.072 13.1791C115.907 13.2608 115.866 13.4067 115.93 13.57C115.984 13.7101 116.178 13.7509 116.332 13.6634C116.473 13.5817 116.597 13.4883 116.544 13.2899Z" fill="#FAF8F8"/>
<path d="M109.896 6.03658C110.091 5.8732 110.262 5.75649 110.492 5.77983C110.716 5.79734 110.869 5.92571 110.899 6.14746C110.952 6.53259 110.887 6.91772 110.905 7.29701C110.911 7.41372 110.828 7.39621 110.757 7.40204C110.663 7.40788 110.628 7.37287 110.628 7.27367C110.633 6.97607 110.639 6.6843 110.633 6.3867C110.633 6.11827 110.551 6.00741 110.368 6.00157C110.162 5.99574 109.89 6.22331 109.89 6.41004C109.884 6.69014 109.884 6.97023 109.89 7.25033C109.89 7.34953 109.867 7.39621 109.755 7.39621C109.642 7.39621 109.613 7.34953 109.619 7.25033C109.625 6.83019 109.631 6.41004 109.637 5.9899C109.637 5.90237 109.613 5.82068 109.76 5.81484C109.902 5.809 109.89 5.90237 109.896 6.03658Z" fill="#FDFBFA"/>
<path d="M120.821 10.3722C120.715 10.4656 120.609 10.559 120.461 10.5765C120.22 10.6056 120.031 10.5181 119.948 10.3197C119.854 10.098 119.93 9.87622 120.137 9.742C120.296 9.63697 120.479 9.59613 120.662 9.57278C120.774 9.56111 120.868 9.54944 120.845 9.39772C120.821 9.25184 120.768 9.13513 120.597 9.14097C120.473 9.14097 120.367 9.20516 120.267 9.26351C120.208 9.29853 120.161 9.37438 120.084 9.26935C120.007 9.15264 120.107 9.13514 120.166 9.09429C120.332 8.98926 120.503 8.90173 120.709 8.91923C120.939 8.93674 121.069 9.04761 121.081 9.28102C121.093 9.54361 121.069 9.81203 121.081 10.0746C121.087 10.1972 120.963 10.4539 121.293 10.3547C121.334 10.343 121.34 10.4014 121.358 10.4306C121.382 10.4773 121.34 10.4948 121.311 10.5123C121.152 10.6406 120.969 10.5881 120.821 10.3722ZM120.827 9.92874C120.792 9.88789 120.927 9.73617 120.762 9.73617C120.603 9.74201 120.438 9.77118 120.302 9.88206C120.178 9.98126 120.131 10.1096 120.22 10.2497C120.308 10.3897 120.444 10.4131 120.585 10.343C120.75 10.2672 120.892 10.1738 120.827 9.92874Z" fill="#FDFBFA"/>
<path d="M115.548 9.73028C115.43 9.73028 115.306 9.74195 115.188 9.73028C115.005 9.70694 114.993 9.8003 115.017 9.93451C115.088 10.3488 115.424 10.4947 115.778 10.2555C115.849 10.2088 115.914 10.1212 115.99 10.2438C116.061 10.3547 115.949 10.3838 115.896 10.4247C115.678 10.6056 115.424 10.6406 115.164 10.5355C114.899 10.4305 114.781 10.2204 114.746 9.95201C114.663 9.31597 115.046 8.83164 115.577 8.925C115.872 8.97752 116.15 9.39183 116.073 9.66609C116.055 9.74195 116.002 9.72444 115.949 9.72444C115.819 9.73027 115.684 9.73028 115.548 9.73028ZM115.406 9.54355C115.483 9.54355 115.554 9.53771 115.63 9.54355C115.79 9.56105 115.807 9.48519 115.76 9.36265C115.748 9.32764 115.737 9.29263 115.719 9.26345C115.63 9.12341 115.507 9.08256 115.353 9.13508C115.188 9.19343 115.046 9.32181 115.076 9.49103C115.1 9.60774 115.282 9.5202 115.389 9.54355C115.394 9.54355 115.4 9.54355 115.406 9.54355Z" fill="#FDFBFA"/>
<path d="M111.643 6.03074C111.837 5.87902 111.996 5.76231 112.221 5.77982C112.468 5.79732 112.634 5.93153 112.645 6.17078C112.657 6.53841 112.645 6.90603 112.651 7.27949C112.651 7.40204 112.586 7.40203 112.498 7.40203C112.398 7.40787 112.374 7.36118 112.374 7.27365C112.38 6.95855 112.38 6.63761 112.374 6.3225C112.368 6.04241 112.168 5.9257 111.92 6.05991C111.743 6.15327 111.607 6.26415 111.631 6.5034C111.654 6.74265 111.637 6.98773 111.637 7.23281C111.637 7.32618 111.643 7.40203 111.501 7.40203C111.365 7.40203 111.359 7.33785 111.359 7.23281C111.365 6.83017 111.365 6.4217 111.377 6.01907C111.377 5.94904 111.306 5.83817 111.466 5.82067C111.625 5.80316 111.643 5.89069 111.643 6.03074Z" fill="#FDFBFA"/>
<path d="M117.199 7.23284C117.075 7.32621 116.969 7.41957 116.822 7.44291C116.609 7.47209 116.438 7.40206 116.326 7.22117C116.22 7.04611 116.256 6.81853 116.415 6.67265C116.58 6.5151 116.786 6.46258 117.005 6.43924C117.152 6.42757 117.217 6.36922 117.193 6.2175C117.17 6.07161 117.105 5.98992 116.946 5.99575C116.81 6.00159 116.704 6.07161 116.604 6.14164C116.527 6.19415 116.491 6.17665 116.444 6.10663C116.391 6.03077 116.444 6.00159 116.497 5.97242C116.668 5.86738 116.84 5.76234 117.052 5.76818C117.3 5.77401 117.441 5.90823 117.447 6.15331C117.453 6.45091 117.441 6.74268 117.447 7.04028C117.447 7.14531 117.429 7.2912 117.624 7.21534C117.683 7.192 117.701 7.23284 117.718 7.27369C117.748 7.33204 117.707 7.34954 117.665 7.37288C117.5 7.49543 117.323 7.44291 117.199 7.23284ZM117.182 6.78352C117.146 6.74851 117.258 6.59679 117.134 6.60263C116.946 6.60846 116.745 6.64347 116.609 6.80103C116.527 6.90023 116.515 7.01693 116.592 7.1278C116.674 7.24451 116.792 7.27369 116.928 7.21534C117.099 7.13948 117.235 7.04028 117.182 6.78352Z" fill="#FDFBFA"/>
<path d="M116.692 9.18194C116.869 9.03022 117.034 8.90768 117.264 8.91935C117.523 8.93102 117.694 9.06523 117.706 9.32199C117.718 9.68961 117.706 10.0572 117.712 10.4307C117.712 10.5357 117.671 10.5532 117.576 10.5532C117.476 10.5532 117.423 10.5357 117.429 10.419C117.435 10.1156 117.435 9.81215 117.429 9.50871C117.429 9.25196 117.352 9.15276 117.169 9.14693C116.951 9.14109 116.686 9.35116 116.68 9.54372C116.674 9.82382 116.68 10.1039 116.68 10.384C116.68 10.4774 116.686 10.5532 116.544 10.5532C116.414 10.5532 116.403 10.4832 116.408 10.384C116.414 9.97554 116.414 9.5729 116.426 9.16443C116.426 9.08274 116.373 8.97186 116.544 8.96019C116.721 8.94852 116.674 9.07107 116.692 9.18194Z" fill="#FDFBFA"/>
<path d="M115.406 7.07526C115.559 6.67262 115.701 6.29333 115.837 5.91403C115.878 5.80316 115.919 5.77399 116.043 5.81483C116.208 5.86735 116.114 5.94905 116.09 6.01907C115.925 6.43338 115.748 6.84768 115.583 7.26783C115.548 7.36119 115.5 7.40787 115.388 7.40787C115.276 7.40787 115.235 7.35536 115.2 7.26783C115.046 6.84768 114.887 6.42754 114.728 6.0074C114.698 5.93154 114.657 5.86152 114.787 5.82067C114.893 5.7915 114.958 5.77982 114.999 5.9082C115.129 6.28749 115.264 6.67262 115.406 7.07526Z" fill="#FAF8F8"/>
<path d="M118.048 6.56764C118.048 6.4626 118.036 6.35757 118.048 6.25837C118.066 6.10665 118.084 5.97243 117.854 6.00745C117.789 6.01912 117.759 5.98411 117.759 5.91992C117.753 5.83239 117.806 5.81488 117.871 5.82655C118.066 5.86157 118.072 5.74486 118.06 5.61065C118.054 5.52896 118.066 5.44725 118.06 5.36556C118.054 5.26052 118.09 5.21968 118.196 5.22552C118.308 5.22552 118.343 5.2722 118.331 5.3714C118.326 5.40641 118.331 5.44726 118.331 5.48227C118.331 5.79738 118.331 5.79738 118.638 5.82655C118.703 5.83239 118.75 5.83239 118.75 5.91992C118.75 6.00745 118.703 6.01911 118.638 6.01328C118.603 6.01328 118.561 6.01911 118.526 6.01328C118.367 5.98994 118.32 6.05413 118.326 6.20584C118.337 6.4626 118.326 6.72519 118.331 6.98194C118.337 7.20952 118.396 7.25036 118.603 7.18034C118.674 7.157 118.738 7.11616 118.78 7.22119C118.821 7.31456 118.744 7.3379 118.685 7.36707C118.361 7.54797 118.084 7.40792 118.054 7.0403C118.042 6.87691 118.054 6.72519 118.048 6.56764Z" fill="#FAF8F8"/>
<path d="M111.743 10.5707C111.636 10.5766 111.53 10.5532 111.43 10.5065C111.377 10.4832 111.259 10.489 111.318 10.3665C111.359 10.2673 111.424 10.2614 111.507 10.314C111.607 10.3723 111.719 10.384 111.831 10.3606C111.937 10.3373 112.008 10.2789 112.026 10.1739C112.049 10.0689 112.002 9.98134 111.908 9.93466C111.813 9.88798 111.719 9.85297 111.625 9.81212C111.395 9.70709 111.282 9.53203 111.312 9.32779C111.347 9.09438 111.507 8.95434 111.766 8.91932C111.92 8.90182 112.061 8.92516 112.203 8.98934C112.244 9.00685 112.315 9.02436 112.274 9.09438C112.244 9.1469 112.215 9.22859 112.126 9.18774C112.043 9.15273 111.961 9.11189 111.872 9.11772C111.737 9.11772 111.619 9.17607 111.589 9.31612C111.56 9.4445 111.642 9.52619 111.749 9.57871C111.813 9.61372 111.884 9.63706 111.955 9.66624C112.25 9.78878 112.35 9.95801 112.297 10.2031C112.238 10.4365 112.038 10.5707 111.743 10.5707Z" fill="#FAF8F8"/>
<path d="M120.721 13.8967C120.591 13.8967 120.473 13.8675 120.355 13.8092C120.302 13.7858 120.237 13.7625 120.29 13.6808C120.326 13.6283 120.355 13.5641 120.444 13.6166C120.538 13.675 120.65 13.7041 120.762 13.6866C120.886 13.6691 120.975 13.6166 120.998 13.4882C121.022 13.3657 120.957 13.2898 120.857 13.2373C120.756 13.1848 120.65 13.1498 120.55 13.1031C120.355 13.0097 120.255 12.858 120.284 12.6421C120.314 12.4204 120.467 12.2862 120.703 12.2453C120.862 12.2161 121.016 12.2395 121.157 12.3095C121.205 12.3328 121.287 12.3387 121.24 12.4262C121.205 12.4904 121.163 12.5546 121.069 12.4962C121.01 12.4671 120.945 12.4437 120.88 12.4379C120.733 12.4204 120.609 12.4729 120.562 12.6188C120.514 12.7705 120.621 12.8522 120.744 12.9047C120.803 12.9339 120.868 12.9514 120.933 12.9806C121.222 13.1031 121.328 13.2723 121.269 13.5232C121.205 13.7625 121.004 13.9025 120.721 13.8967Z" fill="#FAF8F8"/>
<path d="M118.249 9.7304C118.249 9.61953 118.243 9.50866 118.249 9.39779C118.255 9.25774 118.273 9.10603 118.048 9.14687C117.989 9.15854 117.972 9.1177 117.972 9.06518C117.972 9.00683 117.978 8.95431 118.054 8.96598C118.284 9.00683 118.261 8.85511 118.255 8.70923C118.255 8.63337 118.261 8.56334 118.255 8.48748C118.243 8.37661 118.296 8.35327 118.402 8.35327C118.503 8.35327 118.538 8.39412 118.526 8.48165C118.52 8.52833 118.526 8.56918 118.526 8.61586C118.526 8.9368 118.526 8.9368 118.839 8.96014C118.898 8.96597 118.957 8.9543 118.963 9.04183C118.969 9.14103 118.91 9.14687 118.833 9.14103C118.786 9.14103 118.744 9.14687 118.697 9.14103C118.562 9.12353 118.514 9.17021 118.52 9.31026C118.532 9.57285 118.514 9.84127 118.52 10.1097C118.526 10.3373 118.597 10.384 118.815 10.3023C118.886 10.2789 118.927 10.2497 118.974 10.3373C119.022 10.4365 118.957 10.4481 118.898 10.4773C118.532 10.6816 118.249 10.5182 118.243 10.098C118.243 9.98132 118.249 9.85294 118.249 9.7304Z" fill="#FDFBFA"/>
<path d="M118.598 13.0682C118.598 12.9515 118.592 12.829 118.598 12.7122C118.604 12.5722 118.615 12.438 118.403 12.4788C118.338 12.4905 118.314 12.4497 118.314 12.3855C118.314 12.3154 118.35 12.2863 118.409 12.2979C118.621 12.3388 118.609 12.2046 118.604 12.0645C118.598 11.977 118.609 11.8895 118.604 11.7961C118.598 11.6794 118.668 11.6852 118.745 11.6852C118.822 11.6852 118.881 11.6911 118.875 11.7903C118.869 11.8486 118.875 11.907 118.875 11.9653C118.875 12.2688 118.875 12.2688 119.176 12.2921C119.235 12.2979 119.294 12.2863 119.3 12.3796C119.305 12.4788 119.241 12.4847 119.17 12.4788C119.123 12.4788 119.081 12.4847 119.034 12.4788C118.916 12.4613 118.863 12.4963 118.869 12.6306C118.881 12.9048 118.863 13.1791 118.875 13.4475C118.881 13.6692 118.952 13.7159 119.152 13.6342C119.223 13.605 119.282 13.5642 119.323 13.6692C119.364 13.7684 119.294 13.7801 119.235 13.8093C118.881 14.0018 118.603 13.8443 118.592 13.4592C118.598 13.3308 118.598 13.1966 118.598 13.0682Z" fill="#FDFBFA"/>
<path d="M112.545 9.79457C112.545 9.28106 112.84 8.93094 113.253 8.9076C113.436 8.89593 113.589 8.96012 113.713 9.08849C113.754 9.12934 113.813 9.17019 113.742 9.22855C113.689 9.27523 113.648 9.31607 113.559 9.25188C113.265 9.03598 112.993 9.12934 112.869 9.47363C112.81 9.63702 112.81 9.80624 112.852 9.97546C112.928 10.3081 113.282 10.5181 113.571 10.2381C113.63 10.1797 113.672 10.1739 113.731 10.2381C113.795 10.3081 113.766 10.3431 113.707 10.3956C113.506 10.5823 113.276 10.629 113.023 10.5473C112.74 10.454 112.616 10.2205 112.557 9.94629C112.539 9.89377 112.545 9.82375 112.545 9.79457Z" fill="#FAF8F8"/>
<path d="M117.601 12.5372C117.736 12.3854 117.837 12.2629 118.002 12.2629C118.061 12.2629 118.161 12.2454 118.155 12.3388C118.149 12.4088 118.155 12.4963 118.037 12.5197C117.701 12.5897 117.601 12.7239 117.601 13.0682C117.601 13.2666 117.601 13.465 117.601 13.6634C117.601 13.7626 117.636 13.8676 117.459 13.8676C117.294 13.8618 117.329 13.7626 117.329 13.675C117.329 13.2782 117.329 12.8756 117.329 12.4788C117.329 12.3854 117.3 12.2979 117.459 12.2862C117.63 12.2746 117.607 12.3738 117.601 12.5372Z" fill="#F6F4F4"/>
<path d="M119.064 6.61428C119.064 6.39254 119.07 6.17079 119.064 5.95489C119.058 5.84402 119.105 5.82068 119.205 5.82068C119.3 5.82068 119.353 5.83234 119.353 5.94905C119.341 6.38086 119.335 6.81268 119.341 7.25033C119.341 7.3612 119.312 7.40204 119.188 7.40204C119.046 7.40204 119.058 7.32619 119.058 7.23282C119.058 7.02859 119.058 6.82435 119.058 6.61428C119.058 6.61428 119.058 6.61428 119.064 6.61428Z" fill="#FDFBFA"/>
<path d="M119.541 9.76529C119.541 9.98703 119.535 10.2088 119.541 10.4305C119.541 10.5355 119.494 10.5531 119.406 10.5531C119.311 10.5531 119.246 10.5472 119.252 10.4247C119.264 9.9812 119.27 9.54355 119.264 9.10007C119.264 8.96585 119.335 8.97169 119.429 8.96586C119.541 8.96002 119.547 9.01837 119.547 9.10007C119.541 9.32181 119.547 9.54355 119.547 9.76529H119.541Z" fill="#FDFBFA"/>
<path d="M119.889 13.0622C119.889 13.2781 119.883 13.4882 119.889 13.7041C119.889 13.8092 119.877 13.8675 119.748 13.8675C119.63 13.8675 119.594 13.8267 119.6 13.7099C119.612 13.284 119.612 12.858 119.612 12.4262C119.612 12.3211 119.653 12.2861 119.754 12.2861C119.848 12.2861 119.907 12.3036 119.901 12.4204C119.895 12.6363 119.901 12.8463 119.901 13.0622C119.895 13.0622 119.889 13.0622 119.889 13.0622Z" fill="#F6F4F4"/>
<path d="M109.142 6.60842C109.142 6.83016 109.136 7.0519 109.142 7.27364C109.142 7.37284 109.106 7.40202 109.012 7.40202C108.917 7.40202 108.858 7.39618 108.858 7.27364C108.864 6.83016 108.87 6.38668 108.864 5.94319C108.864 5.84399 108.9 5.81482 108.994 5.82066C109.083 5.82066 109.153 5.82065 109.147 5.94319C109.136 6.16493 109.147 6.38668 109.147 6.60842C109.147 6.60842 109.147 6.60842 109.142 6.60842Z" fill="#FDFBFA"/>
<path d="M114.073 9.75953C114.073 9.53778 114.079 9.31604 114.073 9.0943C114.067 8.9776 114.114 8.96008 114.214 8.96008C114.321 8.96008 114.356 8.9951 114.356 9.10013C114.35 9.53195 114.35 9.96959 114.356 10.4014C114.356 10.5239 114.309 10.5473 114.203 10.5473C114.079 10.5473 114.079 10.4831 114.079 10.3956C114.079 10.1855 114.073 9.9696 114.073 9.75953Z" fill="#FDFBFA"/>
<path d="M119.205 5.17884C119.329 5.1555 119.353 5.21969 119.353 5.33056C119.353 5.44143 119.323 5.48228 119.205 5.48228C119.087 5.48228 119.058 5.44726 119.058 5.33056C119.058 5.22552 119.081 5.16134 119.205 5.17884Z" fill="#F6F4F4"/>
<path d="M119.394 8.33559C119.53 8.30642 119.553 8.3706 119.553 8.48147C119.559 8.59818 119.518 8.62736 119.406 8.62736C119.294 8.62736 119.247 8.59818 119.252 8.48147C119.258 8.36477 119.276 8.30058 119.394 8.33559Z" fill="#F6F4F4"/>
<path d="M114.214 8.61574C114.085 8.64492 114.079 8.57489 114.073 8.46986C114.067 8.35315 114.114 8.32397 114.226 8.32397C114.35 8.32397 114.374 8.37066 114.374 8.48153C114.374 8.60407 114.326 8.63908 114.214 8.61574Z" fill="#F6F4F4"/>
<path d="M119.895 11.8078C119.924 11.9536 119.836 11.942 119.742 11.9478C119.594 11.9595 119.6 11.8778 119.594 11.7727C119.588 11.6444 119.653 11.6385 119.759 11.6327C119.901 11.6327 119.919 11.7086 119.895 11.8078Z" fill="#F6F4F4"/>
<path d="M109.147 5.33636C109.177 5.46474 109.1 5.4764 108.994 5.4764C108.876 5.48224 108.864 5.42389 108.864 5.33052C108.864 5.21965 108.888 5.17297 109.012 5.17297C109.136 5.17881 109.165 5.23133 109.147 5.33636Z" fill="#FDFBFA"/>
<path d="M119.995 6.59098C119.995 6.57931 119.995 6.55014 120.001 6.52096C120.036 6.19418 120.237 5.97827 120.485 5.97827C120.756 5.98411 120.939 6.20585 120.957 6.55014C120.957 6.58515 120.957 6.62599 120.951 6.661C120.921 7.01695 120.721 7.24454 120.455 7.23287C120.184 7.22703 119.995 6.96444 119.995 6.59098Z" fill="#E21119"/>
<path d="M113.306 6.62602C113.306 6.23505 113.506 5.97247 113.795 5.98414C114.078 5.98997 114.261 6.24672 114.255 6.62602C114.255 6.68437 114.249 6.74272 114.238 6.80108C114.167 7.08701 113.966 7.26207 113.73 7.23872C113.494 7.21538 113.323 6.99948 113.312 6.71938C113.306 6.68437 113.306 6.65519 113.306 6.62602Z" fill="#E21119"/>
<path d="M116.544 13.2898C116.597 13.4882 116.473 13.5816 116.332 13.6574C116.172 13.745 115.984 13.7041 115.931 13.5641C115.866 13.4007 115.907 13.2606 116.072 13.1731C116.143 13.1381 116.226 13.1206 116.302 13.0914C116.503 13.0155 116.603 13.0622 116.544 13.2898Z" fill="#E21119"/>
<path d="M120.827 9.92877C120.886 10.1739 120.744 10.2672 120.585 10.3431C120.444 10.4131 120.308 10.3956 120.219 10.2497C120.131 10.1038 120.178 9.98129 120.302 9.88209C120.432 9.77705 120.603 9.74204 120.762 9.73621C120.927 9.73621 120.797 9.88792 120.827 9.92877Z" fill="#E21119"/>
<path d="M115.406 9.54366C115.4 9.54366 115.388 9.54366 115.382 9.54366C115.276 9.52031 115.093 9.60785 115.069 9.49114C115.04 9.32775 115.181 9.19938 115.347 9.13519C115.5 9.08267 115.624 9.12352 115.712 9.26356C115.73 9.29274 115.742 9.32775 115.754 9.36276C115.807 9.49114 115.783 9.56116 115.624 9.54366C115.559 9.53782 115.482 9.54366 115.406 9.54366Z" fill="#E21119"/>
<path d="M117.181 6.7836C117.234 7.04035 117.093 7.13955 116.922 7.21541C116.786 7.27376 116.668 7.24458 116.586 7.12788C116.509 7.01701 116.521 6.9003 116.603 6.8011C116.739 6.63771 116.94 6.60854 117.128 6.6027C117.258 6.59687 117.146 6.74858 117.181 6.7836Z" fill="#E21119"/>
</svg>
